<?xml version="1.0" encoding="UTF-8"?><!DOCTYPE svg PUBLIC "-//W3C//DTD SVG 1.1//EN" "http://www.w3.org/Graphics/SVG/1.1/DTD/svg11.dtd"><svg xmlns="http://www.w3.org/2000/svg"><symbol id="badge-favourite" viewBox="0 0 100 120"><title>Badge Favourite</title><g fill="#000" fill-rule="evenodd"><path d="M49.895 84.615l-15.818 34.616-13.615-15.923L0 101.077l16.174-33.335c-5.322-7.068-8.482-15.867-8.482-25.434C7.692 18.923 26.231 0 50 0c23.77 0 42.308 18.923 42.308 42.308 0 9.659-3.22 18.536-8.637 25.637L100 105.615l-20.462-2.307-13.615 15.923-15.818-34.616a43.242 43.242 0 0 1-.21 0z"/><path d="M49.615 7C30.538 7 15 22.462 15 41.615c0 19.077 15.154 34.616 34.615 34.616 20 0 34.616-15.539 34.616-34.616C84.23 22.462 68.692 7 49.615 7z" fill="#FFF"/><path d="M49.454 60C61.4 51.491 69.908 42.982 69.908 34.473c0-13.663-18.736-13.663-20.454-1.718C47.736 20.81 29 20.81 29 34.473c0 8.51 8.509 17.018 20.454 25.527z"/></g></symbol><symbol id="badge-hot" viewBox="0 0 100 120"><title>Badge Hot</title><g fill="#000" fill-rule="evenodd"><path d="M49.895 84.615l-15.818 34.616-13.615-15.923L0 101.077l16.174-33.335c-5.322-7.068-8.482-15.867-8.482-25.434C7.692 18.923 26.231 0 50 0c23.77 0 42.308 18.923 42.308 42.308 0 9.659-3.22 18.536-8.637 25.637L100 105.615l-20.462-2.307-13.615 15.923-15.818-34.616a43.242 43.242 0 0 1-.21 0z"/><path d="M49.615 7C30.538 7 15 22.462 15 41.615c0 19.077 15.154 34.616 34.615 34.616 20 0 34.616-15.539 34.616-34.616C84.23 22.462 68.692 7 49.615 7z" fill="#FFF"/><path d="M64.367 48.43c0-16.095-14.348-29.836-19.966-31.43 4.555 8.958 4.858 21.257.683 27.33l-5.618-13.589C36.733 36.891 34 41.294 34 49.037c0 19.89 30.367 19.89 30.367-.607z"/></g></symbol><symbol id="badge-star" viewBox="0 0 100 120"><title>Badge Star</title><g fill="#000" fill-rule="evenodd"><path d="M49.895 84.615l-15.818 34.616-13.615-15.923L0 101.077l16.174-33.335c-5.322-7.068-8.482-15.867-8.482-25.434C7.692 18.923 26.231 0 50 0c23.77 0 42.308 18.923 42.308 42.308 0 9.659-3.22 18.536-8.637 25.637L100 105.615l-20.462-2.307-13.615 15.923-15.818-34.616a43.242 43.242 0 0 1-.21 0z"/><path d="M49.615 7C30.538 7 15 22.462 15 41.615c0 19.077 15.154 34.616 34.615 34.616 20 0 34.616-15.539 34.616-34.616C84.23 22.462 68.692 7 49.615 7z" fill="#FFF"/><path d="M49.399 53.75l-13.225 6.953 2.525-14.727L28 35.547 42.786 33.4 49.4 20l6.612 13.399 14.787 2.148-10.7 10.43 2.526 14.726z"/></g></symbol><symbol id="badge-trendsetter" viewBox="0 0 100 120"><title>Badge Trendsetter</title><g fill="#000" fill-rule="evenodd"><path d="M49.895 84.615l-15.818 34.616-13.615-15.923L0 101.077l16.174-33.335c-5.322-7.068-8.482-15.867-8.482-25.434C7.692 18.923 26.231 0 50 0c23.77 0 42.308 18.923 42.308 42.308 0 9.659-3.22 18.536-8.637 25.637L100 105.615l-20.462-2.307-13.615 15.923-15.818-34.616a43.242 43.242 0 0 1-.21 0z"/><path d="M49.615 7C30.538 7 15 22.462 15 41.615c0 19.077 15.154 34.616 34.615 34.616 20 0 34.616-15.539 34.616-34.616C84.23 22.462 68.692 7 49.615 7z" fill="#FFF"/><path d="M53.23 19L34 45.923h11.538v19.23L64.77 38.232H53.231z"/></g></symbol><symbol id="badge-upcoming" viewBox="0 0 100 120"><title>Badge Upcoming</title><g fill="#000" fill-rule="evenodd"><path d="M49.895 84.615l-15.818 34.616-13.615-15.923L0 101.077l16.174-33.335c-5.322-7.068-8.482-15.867-8.482-25.434C7.692 18.923 26.231 0 50 0c23.77 0 42.308 18.923 42.308 42.308 0 9.659-3.22 18.536-8.637 25.637L100 105.615l-20.462-2.307-13.615 15.923-15.818-34.616a43.242 43.242 0 0 1-.21 0z"/><path d="M49.615 7C30.538 7 15 22.462 15 41.615c0 19.077 15.154 34.616 34.615 34.616 20 0 34.616-15.539 34.616-34.616C84.23 22.462 68.692 7 49.615 7z" fill="#FFF"/><path d="M34.71 60c3.863 0 3.863 0 3.863-3.862 0-13.783 1.212-17.721 9.845-23.098-4.014 5.452-6.134 10.754-6.513 17.04C54.022 52.73 57.96 47.2 60.914 37.734c1.136-3.71 2.272-7.8 6.815-14.464C46.903 21.604 31 27.209 31 52.048v4.09C31 60 31 60 34.71 60z"/></g></symbol><symbol id="emoji-sorry" viewBox="0 0 85 85"><title>Emoji Sorry</title><g fill="none" fill-rule="evenodd"><path d="M58.083 34a4.255 4.255 0 0 1-4.25-4.25 4.255 4.255 0 0 1 4.25-4.25 4.255 4.255 0 0 1 4.25 4.25 4.255 4.255 0 0 1-4.25 4.25zM42.5 68c-4.514 0-11.333 0-11.333-6.73C31.167 55.608 36.25 51 42.5 51s11.333 4.607 11.333 10.27C53.833 68 47.013 68 42.5 68zM26.917 34a4.255 4.255 0 0 1-4.25-4.25 4.255 4.255 0 0 1 4.25-4.25 4.255 4.255 0 0 1 4.25 4.25 4.255 4.255 0 0 1-4.25 4.25zm58.052 7.758a1.416 1.416 0 0 0-2.202-1.162A11.253 11.253 0 0 1 76.5 42.5c-6.25 0-11.333-5.083-11.333-11.333 0-2.89 2.306-9.339 6.494-18.16a1.414 1.414 0 0 0-.315-1.645C63.444 4.035 53.2 0 42.5 0 19.066 0 0 19.066 0 42.5S19.066 85 42.5 85 85 65.934 85 42.5l-.031-.742z" fill="#E7E818"/><path d="M77.773 12.129c-.476-.975-2.069-.975-2.545 0-.74 1.513-7.227 14.917-7.227 19.037 0 4.689 3.81 8.5 8.5 8.5 4.686 0 8.5-3.811 8.5-8.5 0-4.12-6.489-17.524-7.228-19.037" fill="#33ADFF"/></g></symbol><symbol id="eyeball-active" viewBox="0 0 26 26"><title>Eyeball Active</title><g stroke="#193E96" fill="none" fill-rule="evenodd" stroke-linecap="round" stroke-linejoin="round"><path d="M24.5 14s-5.148 6.5-11.5 6.5S1.5 14 1.5 14 6.648 7.5 13 7.5 24.5 14 24.5 14z" stroke-width="2"/><path d="M17 14a4 4 0 1 1-8 0 4 4 0 0 1 8 0z" fill="#193E96"/></g></symbol><symbol id="eyeball-inactive" viewBox="0 0 26 26"><g fill="none" fill-rule="evenodd"><path d="M24.5 14s-5.148 6.5-11.5 6.5S1.5 14 1.5 14 6.648 7.5 13 7.5 24.5 14 24.5 14z" stroke="#999" stroke-width="2" stroke-linecap="round" stroke-linejoin="round" opacity=".5"/><path d="M17 14a4 4 0 1 1-8 0 4 4 0 0 1 8 0z" stroke="#999" stroke-linecap="round" stroke-linejoin="round" fill="#999" opacity=".5"/><path d="M21.213 5L4.243 21.97" stroke="#FFF" stroke-width="4" stroke-linecap="square"/><path d="M21.213 5L4.243 21.97" stroke="#CCC" stroke-width="2" stroke-linecap="round" stroke-linejoin="round"/></g></symbol></svg>