<?xml version="1.0" encoding="UTF-8"?><!DOCTYPE svg PUBLIC "-//W3C//DTD SVG 1.1//EN" "http://www.w3.org/Graphics/SVG/1.1/DTD/svg11.dtd"><svg xmlns="http://www.w3.org/2000/svg"><symbol id="eyeball-active" viewBox="0 0 26 26"><title>Eyeball Active</title><g stroke="#193E96" fill="none" fill-rule="evenodd" stroke-linecap="round" stroke-linejoin="round"><path d="M24.5 14s-5.148 6.5-11.5 6.5S1.5 14 1.5 14 6.648 7.5 13 7.5 24.5 14 24.5 14z" stroke-width="2"/><path d="M17 14a4 4 0 1 1-8 0 4 4 0 0 1 8 0z" fill="#193E96"/></g></symbol><symbol id="eyeball-inactive" viewBox="0 0 26 26"><g fill="none" fill-rule="evenodd"><path d="M24.5 14s-5.148 6.5-11.5 6.5S1.5 14 1.5 14 6.648 7.5 13 7.5 24.5 14 24.5 14z" stroke="#999" stroke-width="2" stroke-linecap="round" stroke-linejoin="round" opacity=".5"/><path d="M17 14a4 4 0 1 1-8 0 4 4 0 0 1 8 0z" stroke="#999" stroke-linecap="round" stroke-linejoin="round" fill="#999" opacity=".5"/><path d="M21.213 5L4.243 21.97" stroke="#FFF" stroke-width="4" stroke-linecap="square"/><path d="M21.213 5L4.243 21.97" stroke="#CCC" stroke-width="2" stroke-linecap="round" stroke-linejoin="round"/></g></symbol></svg>