<?xml version="1.0" encoding="UTF-8"?><!DOCTYPE svg PUBLIC "-//W3C//DTD SVG 1.1//EN" "http://www.w3.org/Graphics/SVG/1.1/DTD/svg11.dtd"><svg xmlns="http://www.w3.org/2000/svg"><defs>
        <rect id="path-1" x="0" y="0" width="48" height="48"/>
        <mask id="mask-2" maskContentUnits="userSpaceOnUse" maskUnits="objectBoundingBox" x="0" y="0" width="48" height="48" fill="white">
            <use xlink:href="#path-1"/>
        </mask>

        <polygon id="path-1" points="0.129714993 31.4769 41.7933022 31.4769 41.7933022 0.415285 0.129714993 0.415285"/>
        <polygon id="path-3" points="0.107301365 38.7719 30.5604507 38.7719 30.5604507 0.4648 0.107301365 0.4648"/>
    </defs><symbol id=""/><symbol id="control-close" viewBox="0 0 28 28">
    <!-- Generator: Sketch 39.1 (31720) - http://www.bohemiancoding.com/sketch -->
    <title>Close</title>
    <desc>Created with Sketch.</desc>

    <g id="Screens" stroke="none" stroke-width="1" fill="none" fill-rule="evenodd" stroke-linecap="round" stroke-linejoin="round">
        <g id="Close" transform="translate(1.000000, 1.000000)" stroke="#F9C623" stroke-width="2">
            <path d="M0.5,0.5 L25.3243828,25.3243828" id="Line"/>
            <path d="M0.5,0.5 L25.3243828,25.3243828" id="Line-Copy" transform="translate(13.000000, 13.000000) rotate(-90.000000) translate(-13.000000, -13.000000) "/>
        </g>
    </g>
</symbol><symbol id="icon-careers" viewBox="0 0 62 31">
    <!-- Generator: Sketch 39.1 (31720) - http://www.bohemiancoding.com/sketch -->
    <title>Page 1</title>
    <desc>Created with Sketch.</desc>

    <g id="Page-1" stroke-width="1" fill-rule="evenodd" stroke-linecap="round" stroke-linejoin="round">
        <g transform="translate(1.000000, 1.000000)" stroke-width="2">
            <path d="M15.7494493,16.4767142 C16.5115994,17.1010274 18.8298756,19.6372996 19.937087,20.5412531 C23.9454938,23.7977616 29.1699905,27.337162 29.9874174,27.857423 C30.6808902,28.2996448 31.5016672,28.6703307 32.5,28.6703307 C33.4564564,28.6703307 34.7043725,28.6817114 35.0125826,27.857423 C36.5720589,29.240992 39.010939,27.4021946 39.2002203,25.4186997 C40.4749372,26.5714029 43.6240407,25.1016656 43.3878579,22.9799764 C44.9004327,23.9928594 47.8686302,22.8255239 46.7379681,20.5412531 C45.3208715,17.6781919 36.5720589,11.4870864 33.3375275,8.34763658 C31.494967,8.99145954 31.3844133,9.83688361 29.9874174,9.97345212 C28.9689839,11.4513184 27.5602626,12.4300594 24.9622522,11.5992676 C22.3659168,10.7684759 24.8131723,6.86651864 26.6373073,5.09600552 C30.2621264,1.57774071 32.4363479,0.811981595 36.6876377,2.65728222 C40.9355773,4.50258285 44.2253855,5.90891329 44.2253855,5.90891329" id="Stroke-1"/>
            <path d="M28.3123623,3 L18.2620319,3" id="Stroke-3"/>
            <path d="M46.7379681,20.5412531 L49.2505507,18.9154375" id="Stroke-5"/>
            <path d="M43.3878579,22.9799764 C42.3007472,22.1475588 36.6876377,16.4767142 36.6876377,16.4767142" id="Stroke-7"/>
            <path d="M39.2002203,25.4186997 C37.8300252,24.3554163 33.9053712,20.3266454 33.3375275,19.7283453" id="Stroke-9"/>
            <path d="M35.0125826,27.857423 C33.6038613,26.7030939 31.13148,24.1684475 29.9874174,22.9799764" id="Stroke-11"/>
            <path d="M14.9119218,18.1025298 C14.9119218,18.1025298 17.7879913,7.11852004 18.2620319,1.84437446 C16.5869769,0.218558926 8.21170153,0.218558926 8.21170153,0.218558926 L0.627929687,18.1025292 L14.9119218,18.1025298 Z" id="Stroke-13" stroke="#F9C623"/>
            <path d="M50.0880782,19.7283453 L59.6464849,19.7283447 L56.7882985,1.84437446 C48.6374805,1.84437446 43.3878579,3.47018999 43.3878579,3.47018999 C44.8066296,5.68455074 49.3326284,17.0733885 50.0880782,19.7283453 Z" id="Stroke-15" stroke="#F9C623"/>
        </g>
    </g>
</symbol><symbol id="icon-case-studies" viewBox="0 0 54 54">
    <!-- Generator: Sketch 39.1 (31720) - http://www.bohemiancoding.com/sketch -->
    <title>Case Studies - Inactive</title>
    <desc>Created with Sketch.</desc>

    <g id="Page-1" stroke-width="1" fill-rule="evenodd" stroke-linecap="round" stroke-linejoin="round">
        <g id="Case-Studies---Inactive" transform="translate(1.000000, 1.000000)" stroke-width="2">
            <path d="M44.2,45.0666667 L51.1333333,51.1333333" id="Stroke-5" stroke="#F9C623"/>
            <path d="M45.9333333,39.8666667 C45.9333333,44.174 42.4406667,47.6666667 38.1333333,47.6666667 C33.826,47.6666667 30.3333333,44.174 30.3333333,39.8666667 C30.3333333,35.5593333 33.826,32.0666667 38.1333333,32.0666667 C42.4406667,32.0666667 45.9333333,35.5593333 45.9333333,39.8666667 L45.9333333,39.8666667 Z" id="Stroke-7" stroke="#F9C623"/>
            <polyline id="Stroke-9" points="26.8666667 45.9333333 0.866666667 45.9333333 0.866666667 14.7333333 14.7333333 0.866666667 37.2666667 0.866666667 37.2666667 26.8666667"/>
            <polyline id="Stroke-11" points="0.866666667 14.7333333 14.7333333 14.7333333 14.7333333 0.866666667"/>
        </g>
    </g>
</symbol><symbol id="icon-conferences" viewBox="0 0 33 56">
    <!-- Generator: Sketch 39.1 (31720) - http://www.bohemiancoding.com/sketch -->
    <title>Conferences - Inactive</title>
    <desc>Created with Sketch.</desc>

    <g id="Page-1" stroke-width="1" fill-rule="evenodd" stroke-linecap="round" stroke-linejoin="round">
        <g id="Conferences---Inactive" transform="translate(1.000000, 1.000000)" stroke-width="2">
            <path d="M24.6176471,53.1 L6.38235294,53.1 C6.38235294,50.5926 8.401,47.7 10.9411765,47.7 L20.0588235,47.7 C22.599,47.7 24.6176471,50.5926 24.6176471,53.1 L24.6176471,53.1 Z" id="Stroke-1"/>
            <path d="M6.38235294,18.6923077 L24.6176471,18.6923077" id="Stroke-9" stroke="#F9C623"/>
            <path d="M6.38235294,9.34615385 L10.0294118,9.34615385" id="Stroke-11" stroke="#F9C623"/>
            <path d="M6.38235294,14.5384615 L10.0294118,14.5384615" id="Stroke-13" stroke="#F9C623"/>
            <path d="M20.9705882,9.34615385 L24.6176471,9.34615385" id="Stroke-15" stroke="#F9C623"/>
            <path d="M20.9705882,14.5384615 L24.6176471,14.5384615" id="Stroke-17" stroke="#F9C623"/>
            <path d="M6.38235294,24.3 L0.911764706,24.3 L0.911764706,26.1 C0.911764706,34.2 7.29411765,38.7 15.5,38.7 C23.7058824,38.7 30.0882353,34.2 30.0882353,26.1 L30.0882353,24.3 L24.6978824,24.3" id="Stroke-3"/>
            <path d="M15.5,38.7 L15.5,47.7" id="Stroke-5"/>
            <path d="M15.5,0.9 C10.4214706,0.9 6.38235294,4.887 6.38235294,9.9 L6.38235294,26.1 C6.38235294,31.113 10.4214706,35.1 15.5,35.1 C20.5785294,35.1 24.6176471,31.113 24.6176471,26.1 L24.6176471,9.9 C24.6176471,4.887 20.5785294,0.9 15.5,0.9 L15.5,0.9 Z" id="Stroke-7"/>
        </g>
    </g>
</symbol><symbol id="icon-mobile" viewBox="0 0 31 49">
    <!-- Generator: Sketch 39.1 (31720) - http://www.bohemiancoding.com/sketch -->
    <title>PeraMobile - Inactive</title>
    <desc>Created with Sketch.</desc>

    <g id="Page-1" stroke-width="1" fill-rule="evenodd">
        <g id="PeraMobile---Inactive" transform="translate(1.000000, 1.000000)">
            <path d="M23.5555556,46.4 L5.83333333,46.4 C3.16372222,46.4 1,44.2512 1,41.6 L1,4.8 C1,2.1488 3.16372222,0 5.83333333,0 L23.5555556,0 C26.2251667,0 28.3888889,2.1488 28.3888889,4.8 L28.3888889,41.6 C28.3888889,44.2512 26.2251667,46.4 23.5555556,46.4 L23.5555556,46.4 Z" id="Stroke-1" stroke-width="2" stroke-linecap="round" stroke-linejoin="round"/>
            <path d="M0.805555556,6 L28.1944444,6" id="Stroke-3" stroke-width="2" stroke-linecap="round" stroke-linejoin="round"/>
            <path d="M1.61111111,38 L27.3888889,38" id="Stroke-5" stroke-width="2" stroke-linecap="round" stroke-linejoin="round"/>
            <path d="M10.4722222,3 L18.5277778,3" id="Stroke-7" stroke-width="2" stroke-linecap="round" stroke-linejoin="round"/>
            <path d="" id="Stroke-9" stroke-width="2" stroke-linecap="round" stroke-linejoin="round"/>
            <path d="M15.3055556,42.2 C15.3055556,42.6416 14.9446667,43 14.5,43 C14.0553333,43 13.6944444,42.6416 13.6944444,42.2 C13.6944444,41.7584 14.0553333,41.4 14.5,41.4 C14.9446667,41.4 15.3055556,41.7584 15.3055556,42.2 L15.3055556,42.2 Z" id="Stroke-11" stroke-width="2" stroke-linecap="round" stroke-linejoin="round"/>
            <polygon id="excline" stroke="none" fill="#F9C623" points="16.388 17.34 13.756 17.34 14.442 23.668 15.73 23.388"/>
            <polygon id="excldot" stroke="none" fill="#F9C623" points="16.206 27 16.206 24.592 13.924 24.592 13.924 27"/>
            <circle id="Oval" stroke="#F9C623" stroke-width="2" cx="15" cy="22" r="8"/>
        </g>
    </g>
</symbol><symbol id="icon-model" viewBox="0 0 50 52">
    <!-- Generator: Sketch 39.1 (31720) - http://www.bohemiancoding.com/sketch -->
    <title>MDSV - Inactive</title>
    <desc>Created with Sketch.</desc>

    <g id="Page-1" stroke-width="1" fill-rule="evenodd" stroke-linecap="round" stroke-linejoin="round">
        <g id="MDSV---Inactive" transform="translate(1.000000, 1.000000)" stroke-width="2">
            <path d="M47.001931,12.42 L45.0024828,10.8983333 C45.0405517,10.605 45.0769655,10.3116667 45.0769655,10 C45.0769655,9.68833333 45.0587586,9.395 45.0024828,9.10166667 L46.9837241,7.58 C47.1508966,7.43333333 47.2071724,7.195 47.0946207,6.99333333 L45.2275862,3.82166667 C45.1150345,3.62 44.8717241,3.54666667 44.6482759,3.62 L42.3310345,4.53666667 C41.846069,4.17 41.3213793,3.85833333 40.7437241,3.63833333 L40.3878621,1.21833333 C40.3696552,0.998333333 40.1644138,0.833333333 39.9393103,0.833333333 L36.2035862,0.833333333 C35.9784828,0.833333333 35.7732414,0.998333333 35.7351724,1.21833333 L35.3809655,3.63833333 C34.8198621,3.87666667 34.2786207,4.17 33.792,4.53666667 L31.4764138,3.62 C31.2711724,3.54666667 31.0278621,3.62 30.8971034,3.82166667 L29.0284138,6.99333333 C28.9158621,7.195 28.953931,7.43333333 29.1409655,7.58 L31.1205517,9.10166667 C31.0841379,9.395 31.0642759,9.68833333 31.0642759,10 C31.0642759,10.3116667 31.0841379,10.605 31.1205517,10.8983333 L29.1409655,12.42 C28.9721379,12.5666667 28.9158621,12.805 29.0284138,13.0066667 L30.8971034,16.1783333 C31.0096552,16.38 31.2513103,16.4533333 31.4764138,16.38 L33.792,15.4633333 C34.2786207,15.83 34.8016552,16.1416667 35.3809655,16.3616667 L35.7351724,18.7816667 C35.7732414,19.0016667 35.9602759,19.1666667 36.2035862,19.1666667 L39.9393103,19.1666667 C40.1644138,19.1666667 40.3696552,19.0016667 40.406069,18.7816667 L40.761931,16.3616667 C41.3213793,16.1233333 41.8642759,15.83 42.3310345,15.4633333 L44.6664828,16.38 C44.8717241,16.4533333 45.1150345,16.38 45.2457931,16.1783333 L47.1144828,13.0066667 C47.2253793,12.805 47.1707586,12.5666667 47.001931,12.42 L47.001931,12.42 Z" id="Path"/>
            <path d="M40.5517241,10 C40.5517241,11.38 39.4394483,12.5 38.0689655,12.5 C36.6984828,12.5 35.5862069,11.38 35.5862069,10 C35.5862069,8.62 36.6984828,7.5 38.0689655,7.5 C39.4394483,7.5 40.5517241,8.62 40.5517241,10 L40.5517241,10 Z" id="Path"/>
            <path d="M30.0198621,34.1183333 C30.0926897,33.595 30.1423448,33.0483333 30.1423448,32.5 C30.1423448,31.9516667 30.0926897,31.405 30.0198621,30.8566667 L33.6182069,28.095 C33.9343448,27.8333333 34.032,27.38 33.8135172,27.0233333 L30.4088276,21.2616667 C30.1903448,20.905 29.7533793,20.7616667 29.3644138,20.905 L25.1337931,22.5716667 C24.2598621,21.905 23.3114483,21.3566667 22.2653793,20.9283333 L21.6331034,16.5233333 C21.5602759,16.1433333 21.1961379,15.8333333 20.7823448,15.8333333 L13.9762759,15.8333333 C13.5624828,15.8333333 13.1983448,16.1433333 13.1255172,16.5483333 L12.4932414,20.9516667 C11.472,21.3816667 10.4987586,21.9283333 9.62482759,22.595 L5.3942069,20.9283333 C5.00524138,20.785 4.56827586,20.9283333 4.34813793,21.285 L0.945103448,27.0483333 C0.72662069,27.405 0.824275862,27.8566667 1.14041379,28.1183333 L4.73710345,30.8816667 C4.66427586,31.405 4.61627586,31.9516667 4.61627586,32.5 C4.61627586,33.0483333 4.66427586,33.595 4.73710345,34.1433333 L1.14041379,36.905 C0.824275862,37.1666667 0.72662069,37.6183333 0.945103448,37.9766667 L4.34813793,43.7383333 C4.56827586,44.095 5.00524138,44.2383333 5.3942069,44.095 L9.62482759,42.4283333 C10.4987586,43.095 11.4471724,43.6433333 12.4932414,44.0716667 L13.1255172,48.4766667 C13.1983448,48.8566667 13.5624828,49.1666667 13.9762759,49.1666667 L20.7823448,49.1666667 C21.1961379,49.1666667 21.5602759,48.8566667 21.6331034,48.4516667 L22.2653793,44.0466667 C23.2866207,43.6183333 24.2598621,43.0716667 25.1337931,42.405 L29.3644138,44.0716667 C29.7533793,44.215 30.1903448,44.0716667 30.4088276,43.715 L33.8135172,37.9516667 C34.032,37.595 33.9343448,37.1433333 33.6182069,36.88 L30.0198621,34.1183333 L30.0198621,34.1183333 Z" id="Path" stroke="#F9C623"/>
            <path d="M22.3448276,32.5 C22.3448276,35.2616667 20.121931,37.5 17.3793103,37.5 C14.6366897,37.5 12.4137931,35.2616667 12.4137931,32.5 C12.4137931,29.7383333 14.6366897,27.5 17.3793103,27.5 C20.121931,27.5 22.3448276,29.7383333 22.3448276,32.5 L22.3448276,32.5 Z" id="Path" stroke="#F9C623"/>
        </g>
    </g>
</symbol><symbol id="icon-news" viewBox="0 0 52 54">
    <!-- Generator: Sketch 39.1 (31720) - http://www.bohemiancoding.com/sketch -->
    <title>News - Inactive</title>
    <desc>Created with Sketch.</desc>

    <g id="Page-1" stroke-width="1" fill-rule="evenodd" stroke-linecap="round" stroke-linejoin="round">
        <g id="News---Inactive" transform="translate(1.000000, 1.000000)" stroke-width="2">
            <polyline id="Stroke-1" points="26.7241379 45.9333333 0.862068966 45.9333333 0.862068966 14.7333333 14.6551724 0.866666667 37.0689655 0.866666667 37.0689655 23.4"/>
            <polyline id="Stroke-3" points="0.862068966 14.7333333 14.6551724 14.7333333 14.6551724 0.866666667"/>
            <polygon id="Stroke-5" stroke="#F9C623" points="36.9710345 26.5931467 40.0003448 35.9670133 49.8037931 35.9670133 41.8727586 41.7598133 44.902069 51.13368 36.9710345 45.34088 29.04 51.13368 32.0693103 41.7598133 24.1382759 35.9670133 33.9417241 35.9670133"/>
        </g>
    </g>
</symbol><symbol id="icon-our-story" viewBox="0 0 56 41">
    <!-- Generator: Sketch 39.1 (31720) - http://www.bohemiancoding.com/sketch -->
    <title>Our Story - Inactive</title>
    <desc>Created with Sketch.</desc>

    <g id="Page-1" stroke-width="1" fill-rule="evenodd" stroke-linecap="round" stroke-linejoin="round">
        <g id="Our-Story---Inactive" transform="translate(1.000000, 1.000000)" stroke-width="2">
            <polyline id="Stroke-17" stroke="#F9C623" points="32.5862069 1.85751429 32.5862069 23.2146571 37.2413793 19.5003714 41.8965517 23.2146571 41.8965517 1.85751429"/>
            <path d="M4.65517241,34.3575143 C6.59544828,32.4223714 13.3454483,30.6432286 16.0603448,30.6432286 C18.7752414,30.6432286 25.5941379,32.0268 27,33.4289429 L27,2.78608571 C25.5941379,1.38394286 18.5424828,0.928942857 15.8275862,0.928942857 C13.1126897,0.928942857 6.59544828,1.77951429 4.65517241,3.71465714 L4.65517241,34.3575143 L4.65517241,34.3575143 Z" id="Stroke-1"/>
            <path d="M27,33.4289429 C28.9402759,31.4938 34.2937241,30.6432286 37.0086207,30.6432286 C39.7235172,30.6432286 47.9389655,32.9553714 49.3448276,34.3575143 L49.3448276,2.78608571 C47.9389655,1.38394286 39.9562759,0.928942857 37.2413793,0.928942857 C34.5264828,0.928942857 28.9402759,0.850942857 27,2.78608571 L27,33.4289429 L27,33.4289429 Z" id="Stroke-3"/>
            <path d="M10.2413793,13.0003714 C10.2413793,13.0003714 12.6173793,11.8396571 16.0603448,11.8396571 C19.9390345,11.8396571 21.8793103,13.0003714 21.8793103,13.0003714" id="Stroke-5"/>
            <path d="M10.2413793,18.8039429 C10.2413793,18.8039429 12.6173793,17.6432286 16.0603448,17.6432286 C19.9390345,17.6432286 21.8793103,18.8039429 21.8793103,18.8039429" id="Stroke-7"/>
            <path d="M10.2413793,24.3753714 C10.2413793,24.3753714 12.6173793,23.2146571 16.0603448,23.2146571 C19.9390345,23.2146571 21.8793103,24.3753714 21.8793103,24.3753714" id="Stroke-9"/>
            <path d="M4.65517241,3.71465714 L0.931034483,5.10751429 L0.931034483,38.0718 L21.4137931,35.2860857 C21.4137931,36.5675143 24.4284828,38.0718 27,38.0718 C29.5715172,38.0718 32.5862069,36.5675143 32.5862069,35.2860857 L53.0689655,38.0718 L53.0689655,4.64322857 L49.3448276,3.71465714" id="Stroke-11"/>
            <path d="M21.1764706,35.2860857 L21.1764706,31.5718" id="Stroke-13"/>
            <path d="M31.7647059,35.2860857 L31.7647059,31.5718" id="Stroke-15"/>
        </g>
    </g>
</symbol><symbol id="icon-pera-analytics" viewBox="0 0 48 49">
    <!-- Generator: Sketch 39.1 (31720) - http://www.bohemiancoding.com/sketch -->
    <title>PeraAnalytics - Inactive</title>
    <desc>Created with Sketch.</desc>

    <g id="Navigation" stroke-width="1" fill-rule="evenodd" stroke-linecap="round" stroke-linejoin="round">
        <g id="PeraAnalytics---Inactive" transform="translate(1.000000, 1.000000)" stroke-width="2">
            <polygon id="Stroke-1" points="5.55172414 28.9833333 2.37931034 25.85 2.37931034 46.2166667 8.72413793 46.2166667 8.72413793 25.85"/>
            <polygon id="Stroke-3" points="16.6551724 16.45 13.4827586 19.5833333 13.4827586 46.2166667 19.8275862 46.2166667 19.8275862 19.5833333"/>
            <polygon id="Stroke-5" points="27.7586207 13.3166667 24.5862069 18.0166667 24.5862069 46.2166667 30.9310345 46.2166667 30.9310345 16.45"/>
            <polyline id="Stroke-7" stroke="#F9C623" points="42.0344828 3.91666667 32.5172414 13.3166667 27.7586207 8.61666667 21.4137931 16.45 16.6551724 11.75 5.55172414 24.2833333 0.793103448 19.5833333"/>
            <polygon id="Stroke-9" points="39.6551724 10.9666667 35.6896552 14.8833333 35.6896552 46.2166667 42.0344828 46.2166667 42.0344828 13.3182333"/>
            <polyline id="Stroke-11" stroke="#F9C623" points="45.2068966 0.783333333 45.2068966 7.05 38.862069 0.783333333 44.4137931 0.783333333"/>
        </g>
    </g>
</symbol><symbol id="icon-pera-trend" viewBox="0 0 48 48">
    <!-- Generator: Sketch 39.1 (31720) - http://www.bohemiancoding.com/sketch -->
    <title>PeraTrend - Inactive</title>
    <desc>Created with Sketch.</desc>

    <g id="Navigation" stroke-width="1" fill-rule="evenodd">
        <g id="PeraTrend---Inactive">
            <polyline id="Stroke-5" stroke="#F9C623" stroke-width="2" stroke-linecap="round" stroke-linejoin="round" points="1.45738636 21.3728693 10.734375 13.3636364 13.1420455 30.4708807 19.4669744 38.0209517 24.8181818 28.0909091 29.7272727 33 33 13.3636364 40.446733 15.7009943 46.0909091 10.0909091"/>
            <use id="Rectangle" mask="url(#mask-2)" stroke-width="4" xlink:href="#path-1"/>
        </g>
    </g>
</symbol><symbol id="icon-pera-watch" viewBox="0 0 48 41">
    <!-- Generator: Sketch 39.1 (31720) - http://www.bohemiancoding.com/sketch -->
    <title>PeraWatch - Inactive</title>
    <desc>Created with Sketch.</desc>
    <g id="Page-1" stroke-width="1" fill-rule="evenodd">
        <g id="PeraWatch---Inactive">
            <rect id="path-1" x="0" y="0" width="48" height="41" stroke-width="4"/>
            <path d="M1.90429688,7 L47.298156,7" id="Path-3" stroke-width="2"/>
            <rect id="path-3" x="7" y="13" width="8" height="8" stroke="#F9C623" stroke-width="2"/>
            <rect id="path-5" x="7" y="26" width="8" height="8" stroke="#F9C623" stroke-width="2"/>
            <rect id="path-7" x="20" y="13" width="8" height="8" stroke="#F9C623" stroke-width="2"/>
            <rect id="path-9" x="20" y="26" width="8" height="8" stroke="#F9C623" stroke-width="2"/>
            <rect id="path-11" x="33" y="13" width="8" height="8" stroke="#F9C623" stroke-width="2"/>
            <rect id="path-13" x="33" y="26" width="8" height="8" stroke="#F9C623" stroke-width="2"/>
        </g>
    </g>
</symbol><symbol id="icon-publications" viewBox="0 0 36 49">
    <!-- Generator: Sketch 39.1 (31720) - http://www.bohemiancoding.com/sketch -->
    <title>Scientific Publications - Inactive</title>
    <desc>Created with Sketch.</desc>

    <g id="Page-1" stroke-width="1" fill-rule="evenodd" stroke-linecap="round" stroke-linejoin="round">
        <g id="Scientific-Publications---Inactive" transform="translate(1.000000, 1.000000)" stroke-width="2">
            <polyline id="Stroke-5" stroke="#F9C623" points="17 0 17 20.7668463 20.939552 15.9744971 24.879104 20.7668463 24.879104 0"/>
            <polygon id="Stroke-1" points="33.0922368 46.3260417 0 46.3260417 0 12.7795977 12.6065664 0 33.0922368 0"/>
            <polyline id="Stroke-3" points="0 12.7795977 12.6065664 12.7795977 12.6065664 0"/>
        </g>
    </g>
</symbol><symbol id="icon-purpose" viewBox="0 0 64 64">
    <!-- Generator: Sketch 39.1 (31720) - http://www.bohemiancoding.com/sketch -->
    <title>Purpose - Inactive</title>
    <desc>Created with Sketch.</desc>

    <g id="Page-1" stroke-width="1" fill-rule="evenodd" stroke-linecap="round" stroke-linejoin="round">
        <g id="Purpose---Inactive" transform="translate(1.000000, 1.000000)" stroke-width="2">
            <path d="M27.6879593,27.6879593 L14.4397965,14.4397965" id="Stroke-10"/>
            <path d="M34.5880441,27.6879593 L47.5602035,14.4397965" id="Stroke-11"/>
            <path d="M34.3120407,34.3120407 L47.5602035,47.5602035" id="Stroke-12"/>
            <path d="M26.5839457,34.3120407 L14.4397965,46.4561899" id="Stroke-13"/>
            <path d="M55.2882985,31 C55.2882985,44.4137648 44.4137648,55.2882985 31,55.2882985 C17.5862352,55.2882985 6.71170153,44.4137648 6.71170153,31 C6.71170153,17.5862352 17.5862352,6.71170153 31,6.71170153 C44.4137648,6.71170153 55.2882985,17.5862352 55.2882985,31 L55.2882985,31 Z" id="Stroke-16"/>
            <polyline id="Stroke-1" stroke="#F9C623" points="27.6879593 27.6879593 31 0.0876201244 34.3120407 27.6879593"/>
            <polyline id="Stroke-3" stroke="#F9C623" points="34.3120407 34.3120407 31 61.9123799 27.6879593 34.3120407"/>
            <polyline id="Stroke-5" stroke="#F9C623" points="34.3120407 27.6879593 61.9123799 31 34.3120407 34.3120407"/>
            <polyline id="Stroke-7" stroke="#F9C623" points="27.6879593 34.3120407 0.0876201244 31 27.6879593 27.6879593"/>
            <path d="M35.4160543,31 C35.4160543,33.43987 33.43987,35.4160543 31,35.4160543 C28.56013,35.4160543 26.5839457,33.43987 26.5839457,31 C26.5839457,28.56013 28.56013,26.5839457 31,26.5839457 C33.43987,26.5839457 35.4160543,28.56013 35.4160543,31 L35.4160543,31 Z" id="Stroke-14" stroke="#F9C623"/>
        </g>
    </g>
</symbol><symbol id="icon-releases" viewBox="0 0 44 54">
    <!-- Generator: Sketch 39.1 (31720) - http://www.bohemiancoding.com/sketch -->
    <title>Press Releases - Inactive</title>
    <desc>Created with Sketch.</desc>

    <g id="Page-1" stroke-width="1" fill-rule="evenodd" stroke-linecap="round" stroke-linejoin="round">
        <g id="Press-Releases---Inactive" transform="translate(1.000000, 1.000000)" stroke-width="2">
            <polyline id="Stroke-6" points="4.375 40.7333333 4.375 45.9333333 35.875 45.9333333 35.875 4.33333333 30.625 4.33333333"/>
            <polyline id="Stroke-7" points="7.875 45.9333333 7.875 51.1333333 41.125 51.1333333 41.125 7.8 35.875 7.8"/>
            <polygon id="Stroke-1" stroke="#F9C623" points="30.625 40.7333333 0.875 40.7333333 0.875 14.7333333 14.875 0.866666667 30.625 0.866666667"/>
            <polyline id="Stroke-3" stroke="#F9C623" points="0.875 14.7333333 14.875 14.7333333 14.875 0.866666667"/>
        </g>
    </g>
</symbol><symbol id="icon-ridx-story" viewBox="0 0 39 48">
    <!-- Generator: Sketch 39.1 (31720) - http://www.bohemiancoding.com/sketch -->
    <title>Story - Active</title>
    <desc>Created with Sketch.</desc>

    <g id="Page-1" stroke-width="1" fill-rule="evenodd" stroke-linecap="round" stroke-linejoin="round">
        <g id="Navigation---1" transform="translate(-492.000000, -129.000000)" stroke-width="2">
            <g id="Story---Active" transform="translate(493.000000, 130.000000)">
                <path d="M6.81578947,4.79166667 L2.92105263,4.79166667 C1.85,4.79166667 0.973684211,5.65416667 0.973684211,6.70833333 L0.973684211,43.125 C0.973684211,44.1791667 1.85,45.0416667 2.92105263,45.0416667 L6.81578947,45.0416667" id="Stroke-1"/>
                <polyline id="Stroke-5" points="30.1842105 4.79166667 36.0263158 4.79166667 36.0263158 45.0416667 6.81578947 45.0416667 6.81578947 4.79166667 22.3947368 4.79166667"/>
                <polygon id="Stroke-3" stroke="#F9C623" points="30.1842105 20.1240417 26.2894737 16.2907083 22.3947368 20.1240417 22.3947368 0.959291667 30.1842105 0.959291667"/>
            </g>
        </g>
    </g>
</symbol><symbol id="icon-team" viewBox="0 0 54 54">
    <!-- Generator: Sketch 39.1 (31720) - http://www.bohemiancoding.com/sketch -->
    <title>Team - Inactive</title>
    <desc>Created with Sketch.</desc>

    <g id="Page-1" stroke-width="1" fill-rule="evenodd" stroke-linecap="round" stroke-linejoin="round">
        <g id="Team---Inactive" transform="translate(1.000000, 1.000000)" stroke-width="2">
            <path d="M36.0488631,37.7255544 C36.0488631,32.8379993 31.709586,25.9887153 26.8270609,25.9887153 C21.9445358,25.9887153 17.6052587,32.8379993 17.6052587,37.7255544 L36.0488631,37.7255544 L36.0488631,37.7255544 Z" id="Stroke-1"/>
            <path d="M31.0187892,21.796987 C31.0187892,24.1124977 29.1425716,25.9887153 26.8270609,25.9887153 C24.5115502,25.9887153 22.6353327,24.1124977 22.6353327,21.796987 C22.6353327,19.4814763 24.5115502,17.6052587 26.8270609,17.6052587 C29.1425716,17.6052587 31.0187892,19.4814763 31.0187892,21.796987 L31.0187892,21.796987 Z" id="Stroke-3"/>
            <path d="M38.9356226,34.3721718 L44.4318167,34.3721718 C44.4318167,29.4846167 40.0925396,22.6353327 35.2100145,22.6353327 C34.90821,22.6353327 34.6080823,22.6621597 34.3096312,22.7124605" id="Stroke-5"/>
            <path d="M34.3230448,22.5370786 C34.609759,22.5991161 34.9065333,22.6360033 35.2100145,22.6360033 C37.5255252,22.6360033 39.4017427,20.7581091 39.4017427,18.4442751 C39.4017427,16.1287644 37.5255252,14.2525468 35.2100145,14.2525468 C33.7596765,14.2525468 32.4820377,14.9886143 31.7292033,16.1086441" id="Stroke-7"/>
            <path d="M19.3441553,22.7122928 C19.0457042,22.6619921 18.7472532,22.635165 18.4437721,22.635165 C13.561247,22.635165 9.22196986,29.484449 9.22196986,34.3720041 L14.718164,34.3720041" id="Stroke-9"/>
            <path d="M21.9247509,16.1086441 C21.1719165,14.9886143 19.8942777,14.2525468 18.4439397,14.2525468 C16.128429,14.2525468 14.2522115,16.1287644 14.2522115,18.4442751 C14.2522115,20.7581091 16.128429,22.6360033 18.4439397,22.6360033 C18.7474209,22.6360033 19.0441952,22.5991161 19.3309094,22.5370786" id="Stroke-11"/>
            <path d="M51.9774306,26.4078881 C51.9774306,40.530659 40.5289823,51.9774306 26.4078881,51.9774306 C12.2867939,51.9774306 0.838345654,40.530659 0.838345654,26.4078881 C0.838345654,12.2867939 12.2867939,0.838345654 26.4078881,0.838345654 C40.5289823,0.838345654 51.9774306,12.2867939 51.9774306,26.4078881 L51.9774306,26.4078881 Z" id="Stroke-13" stroke="#F9C623"/>
        </g>
    </g>
</symbol><symbol id="icon-upcoming-webinars" viewBox="0 0 54 55">
    <!-- Generator: Sketch 39.1 (31720) - http://www.bohemiancoding.com/sketch -->
    <title>Upcoming Webinars - Inactive</title>
    <desc>Created with Sketch.</desc>

    <g id="Navigation" stroke-width="1" fill-rule="evenodd">
        <g id="Upcoming-Webinars---Inactive" transform="translate(1.000000, 1.000000)">
            <path d="M0.0158644068,11.0257143 L44.5313898,11.0257143" id="Stroke-3" stroke-width="2" stroke-linecap="round" stroke-linejoin="round"/>
            <path d="M13,0 L13,6" id="Stroke-5" stroke-width="2" stroke-linecap="round" stroke-linejoin="round"/>
            <path d="M31,0 L31,6" id="Stroke-7" stroke-width="2" stroke-linecap="round" stroke-linejoin="round"/>
            <path d="M37.1122001,2.95132203 C41.2095639,2.95132203 44.5308092,6.31514739 44.5308092,10.4647685 L44.5308092,27.9980792" id="Stroke-9" stroke-width="2" stroke-linecap="round" stroke-linejoin="round"/>
            <path d="M27.2198826,45.5313898 L7.43563477,45.5313898 C3.33827097,45.5313898 0.0150902237,42.1675645 0.0150902237,38.0179433 L0.0150902237,10.4647685 C0.0150902237,6.31514739 3.33827097,2.95132203 7.43563477,2.95132203" id="Stroke-11" stroke-width="2" stroke-linecap="round" stroke-linejoin="round"/>
            <path d="M22.8753571,30.4035714 C22.8753571,28.0535714 21.6253571,26.7285714 19.4503571,26.1285714 C21.2753571,25.5285714 22.5503571,24.3285714 22.5503571,22.2285714 C22.5503571,19.9535714 20.9753571,17.8035714 17.1753571,17.8035714 C15.0753571,17.8035714 13.5753571,18.4035714 12.2753571,19.3535714 L12.6003571,21.4535714 C13.8503571,20.4535714 15.3253571,19.8285714 17.0753571,19.8285714 C19.2003571,19.8285714 20.2503571,20.8785714 20.2503571,22.3285714 C20.2503571,24.1535714 18.9253571,25.1535714 16.1253571,25.1535714 L14.8503571,25.1535714 L15.1753571,27.1535714 L15.9503571,27.1535714 C19.2003571,27.1535714 20.5753571,28.3785714 20.5753571,30.4285714 C20.5753571,32.3285714 19.2003571,33.3285714 16.9753571,33.3285714 C15.2003571,33.3285714 13.8003571,32.8035714 12.3753571,31.8285714 L12.0003571,34.0285714 C13.3003571,34.8285714 15.0753571,35.3535714 16.8503571,35.3535714 C20.5503571,35.3535714 22.8753571,33.3785714 22.8753571,30.4035714 L22.8753571,30.4035714 Z" id="31" stroke="none" fill="#F9C623"/>
            <polygon id="Path" stroke="none" fill="#F9C623" points="30.5753571 35.0285714 30.5753571 18.0785714 28.6253571 18.0785714 24.5753571 19.9535714 24.8253571 21.7535714 28.3503571 20.4285714 28.3503571 35.0285714"/>
            <g id="Page-1" transform="translate(32.240000, 33.240000)" stroke-width="2">
                <polygon id="Stroke-1" stroke-linecap="round" stroke-linejoin="round" points="7.18545455 5.38909091 7.18545455 14.2859901 13.981697 9.8375405"/>
                <circle id="Oval" cx="9.88" cy="9.88" r="9.88"/>
            </g>
            <path d="M7.85058594,3 L37.625,3" id="Path-2" stroke-width="2"/>
        </g>
    </g>
</symbol><symbol id="icon-use-cases" viewBox="0 0 49 43">
    <!-- Generator: Sketch 39.1 (31720) - http://www.bohemiancoding.com/sketch -->
    <title>Use Cases - Inactive</title>
    <desc>Created with Sketch.</desc>

    <g id="Page-1" stroke-width="1" fill-rule="evenodd" stroke-linecap="round" stroke-linejoin="round">
        <g id="Use-Cases---Inactive" transform="translate(1.000000, 1.000000)" stroke-width="2">
            <polygon id="Stroke-1" points="0.810344828 40.18 46.1896552 40.18 46.1896552 36.9 0.810344828 36.9"/>
            <polygon id="Stroke-3" points="18.637931 36.9 28.362069 36.9 28.362069 22.14 18.637931 22.14"/>
            <polygon id="Stroke-4" points="31.6034483 28.7 38.0862069 28.7 38.0862069 22.14 31.6034483 22.14"/>
            <polygon id="Stroke-5" points="8.9137931 28.7 15.3965517 28.7 15.3965517 22.14 8.9137931 22.14"/>
            <polygon id="Stroke-6" points="31.6034483 15.58 38.0862069 15.58 38.0862069 9.02 31.6034483 9.02"/>
            <polygon id="Stroke-7" points="8.9137931 15.58 15.3965517 15.58 15.3965517 9.02 8.9137931 9.02"/>
            <path d="M19.8444444,5.74 L19.8444444,17.22" id="Stroke-8" stroke="#F9C623"/>
            <path d="M27.1555556,5.74 L27.1555556,17.22" id="Stroke-9" stroke="#F9C623"/>
            <path d="M19.8444444,11.5641026 L27.1555555,11.5641026" id="Stroke-10" stroke="#F9C623"/>
            <polygon id="Stroke-11" points="31.6034483 5.74 31.6034483 0.82 15.3965517 0.82 15.3965517 5.74 4.05172414 5.74 4.05172414 36.9 42.9482759 36.9 42.9482759 5.74"/>
        </g>
    </g>
</symbol><symbol id="icon-webinars" viewBox="0 0 50 42">
    <!-- Generator: Sketch 39.1 (31720) - http://www.bohemiancoding.com/sketch -->
    <title>Webinars - Inactive</title>
    <desc>Created with Sketch.</desc>

    <g id="Page-1" stroke-width="1" fill-rule="evenodd" stroke-linecap="round" stroke-linejoin="round">
        <g id="Webinars---Inactive" transform="translate(1.000000, 1.000000)" stroke-width="2">
            <polygon id="Stroke-1" stroke="#F9C623" points="18.4 10.4 18.4 29.6 32.8 20"/>
            <path d="M37.6,39.2 L10.4,39.2 C5.0976,39.2 0.8,34.9024 0.8,29.6 L0.8,10.4 C0.8,5.0976 5.0976,0.8 10.4,0.8 L37.6,0.8 C42.9024,0.8 47.2,5.0976 47.2,10.4 L47.2,29.6 C47.2,34.9024 42.9024,39.2 37.6,39.2 L37.6,39.2 Z" id="Stroke-2"/>
        </g>
    </g>
</symbol><symbol id="icon-white-papers" viewBox="0 0 48 54">
    <!-- Generator: Sketch 39.1 (31720) - http://www.bohemiancoding.com/sketch -->
    <title>White Papers - Inactive</title>
    <desc>Created with Sketch.</desc>

    <g id="Page-1" stroke-width="1" fill-rule="evenodd" stroke-linecap="round" stroke-linejoin="round">
        <g id="White-Papers---Inactive" transform="translate(1.000000, 1.000000)" stroke-width="2">
            <polyline id="Stroke-1" points="23.8846154 45.9333333 0.884615385 45.9333333 0.884615385 14.7333333 15.0384615 0.866666667 36.2692308 0.866666667 36.2692308 25.1333333"/>
            <polyline id="Stroke-3" points="0.884615385 14.7333333 15.0384615 14.7333333 15.0384615 0.866666667"/>
            <path d="M36.2692308,51.1333333 C36.2692308,51.1333333 27.4230769,47.1137333 27.4230769,44.2 L27.4230769,32.0666667 L36.2692308,28.6 L45.1153846,32.0666667 L45.1153846,44.2 C45.1153846,47.1137333 36.2692308,51.1333333 36.2692308,51.1333333 L36.2692308,51.1333333 Z" id="Stroke-5" stroke="#F9C623"/>
            <polygon id="Stroke-7" stroke="#F9C623" points="36.2692308 32.9333333 32.7307692 34.6666667 32.7307692 39 36.2692308 39"/>
            <path d="M36.2692308,39 L36.2692308,45.0666667 C38.1446154,44.1601333 39.0186154,43.1686667 39.8076923,42.4666667 L39.8076923,39 L36.2692308,39 L36.2692308,39 Z" id="Stroke-9" stroke="#F9C623"/>
        </g>
    </g>
</symbol><symbol id="logo-icon" viewBox="0 0 282 279">
    <!-- Generator: Sketch 39.1 (31720) - http://www.bohemiancoding.com/sketch -->
    <title>Logo Icon</title>
    <desc>Created with Sketch.</desc>

    <g id="Navigation" stroke="none" stroke-width="1" fill="none" fill-rule="evenodd" opacity="0.0799999982">
        <g id="Logo-Icon" fill="#718CBA">
            <path d="M0.293585526,53.5781092 C0.293585526,53.5781092 182.009171,131.204289 281.610865,1.1151877 C281.610865,1.1151877 202.364342,241.360638 2.95089107,278.921354 C2.95089107,278.921354 240.711466,156.335976 0.293585526,53.5781092" id="Fill-14"/>
            <path d="M168.620713,40.8671155 C162.885975,54.3380361 144.578925,59.4106797 127.742321,52.2016323 C110.91622,44.9925849 101.914992,28.2381274 107.660233,14.7672067 C113.405475,1.30681019 131.702021,-3.76583337 148.538625,3.44321401 C165.375229,10.6522614 174.365955,27.406719 168.620713,40.8671155" id="Fill-15"/>
        </g>
    </g>
</symbol><symbol id="logo-tagline" viewBox="0 0 983 155">
    <!-- Generator: Sketch 39.1 (31720) - http://www.bohemiancoding.com/sketch -->
    <title>ph_logo_lockup_yellow</title>
    <desc>Created with Sketch.</desc>

    <g id="Navigation" stroke="none" stroke-width="1" fill="none" fill-rule="evenodd">
        <g id="ph_logo_lockup_yellow">
            <path d="M57.9222988,43.826575 C68.6830928,43.826575 78.1153938,42.892005 78.1153938,30.342065 C78.1153938,17.925635 68.6830928,16.991065 57.9222988,16.991065 L18.8594923,16.991065 L18.8594923,43.826575 L57.9222988,43.826575 L57.9222988,43.826575 Z M0,0.69771 L53.8039702,0.69771 C70.1495448,0.69771 96.9799957,0.69771 96.9799957,30.475575 C96.9799957,60.114795 70.1495448,60.114795 53.8039702,60.114795 L18.8594923,60.114795 L18.8594923,97.764615 L0,97.764615 L0,0.69771 L0,0.69771 Z" id="Fill-1" fill="#50545E"/>
            <path d="M156.629335,53.706315 C154.105199,41.556905 145.868541,37.017565 134.039843,37.017565 C125.404638,37.017565 115.44605,39.954785 112.119707,53.706315 L156.629335,53.706315 L156.629335,53.706315 Z M172.836951,76.269505 C171.641307,82.143945 162.076157,100.167795 135.639145,100.167795 C110.132077,100.167795 94.8492971,84.146595 94.8492971,61.716915 C94.8492971,41.423395 108.139338,23.66143 134.443501,23.66143 C161.279061,23.933585 174.165444,40.622335 174.165444,66.523275 L111.59342,66.523275 C112.257666,71.062615 114.776694,86.015735 135.102638,86.816795 C145.469994,86.816795 152.378158,81.876925 154.769445,76.269505 L172.836951,76.269505 L172.836951,76.269505 Z" id="Fill-2" fill="#50545E"/>
            <path d="M190.5008,26.069745 L206.979224,26.069745 L206.979224,36.750545 L207.372662,36.750545 C210.959593,30.876105 218.133456,23.66143 232.353442,23.66143 C234.73962,23.66143 236.466661,23.66143 238.193702,23.933585 L238.193702,41.823925 C236.60462,41.423395 233.543976,40.488825 228.102264,40.488825 C207.106963,40.622335 207.106963,54.640885 206.979224,59.714265 L206.979224,97.764615 L190.5008,97.764615 L190.5008,26.069745" id="Fill-3" fill="#50545E"/>
            <path d="M297.715302,61.583405 C288.145042,61.983935 279.775535,63.319035 272.070276,65.188175 C261.835769,67.591355 257.058304,71.062615 256.925454,77.337585 C256.792605,83.479045 260.778084,87.350835 268.881892,87.350835 C281.364618,87.350835 291.338535,81.876925 297.715302,78.005135 L297.715302,61.583405 L297.715302,61.583405 Z M314.183507,86.149245 C314.183507,90.955605 314.449205,95.761965 315.512,97.764615 L298.640137,97.764615 C298.10874,95.361435 297.715302,92.958255 297.715302,90.555075 C290.802028,94.560375 280.572631,100.167795 266.485495,100.167795 C257.058304,100.167795 238.852839,96.162495 238.852839,78.539175 C238.852839,54.373865 274.727262,50.902605 297.715302,49.567505 L297.715302,46.363265 C297.715302,40.88422 292.794768,37.017565 279.239029,37.017565 C264.099317,37.017565 260.910934,42.624985 259.980988,46.496775 L242.838318,46.496775 C246.828907,26.99918 265.826358,23.66143 279.111289,23.66143 C313.51926,23.66143 314.183507,40.488825 314.183507,50.368565 L314.183507,86.149245 L314.183507,86.149245 Z" id="Fill-4" fill="#50545E"/>
            <polyline id="Fill-5" fill="#F7C03B" points="334.959095 0.69771 353.261642 0.69771 353.261642 39.153725 416.150461 39.153725 416.150461 0.69771 434.453008 0.69771 434.453008 97.764615 416.150461 97.764615 416.150461 55.975985 353.261642 55.975985 353.261642 97.764615 334.959095 97.764615 334.959095 0.69771"/>
            <path d="M509.630388,53.706315 C507.106251,41.556905 498.869594,37.017565 487.040896,37.017565 C478.405691,37.017565 468.447102,39.954785 465.12076,53.706315 L509.630388,53.706315 L509.630388,53.706315 Z M525.838004,76.269505 C524.64236,82.143945 515.07721,100.167795 488.640197,100.167795 C463.13313,100.167795 447.85035,84.146595 447.85035,61.716915 C447.85035,41.423395 461.14039,23.66143 487.439444,23.66143 C514.280114,23.933585 527.166497,40.622335 527.166497,66.523275 L464.594472,66.523275 C465.258719,71.062615 467.777746,86.015735 488.103691,86.816795 C498.471046,86.816795 505.37921,81.876925 507.770498,76.269505 L525.838004,76.269505 L525.838004,76.269505 Z" id="Fill-6" fill="#F7C03B"/>
            <path d="M598.772275,61.583405 C589.202015,61.983935 580.837618,63.319035 573.127248,65.188175 C562.897852,67.591355 558.115277,71.062615 557.982427,77.337585 C557.854687,83.479045 561.835057,87.350835 569.938865,87.350835 C582.4267,87.350835 592.395508,81.876925 598.772275,78.005135 L598.772275,61.583405 L598.772275,61.583405 Z M615.245589,86.149245 C615.245589,90.955605 615.506178,95.761965 616.574082,97.764615 L599.69711,97.764615 C599.170823,95.361435 598.772275,92.958255 598.772275,90.555075 C591.864111,94.560375 581.629604,100.167795 567.547577,100.167795 C558.115277,100.167795 539.914921,96.162495 539.914921,78.539175 C539.914921,54.373865 575.789344,50.902605 598.772275,49.567505 L598.772275,46.363265 C598.772275,40.88422 593.85685,37.017565 580.301111,37.017565 C565.15629,37.017565 561.967906,42.624985 561.037961,46.496775 L543.9004,46.496775 C547.88588,26.99918 566.883331,23.66143 580.168262,23.66143 C614.576233,23.66143 615.245589,40.488825 615.245589,50.368565 L615.245589,86.149245 L615.245589,86.149245 Z" id="Fill-7" fill="#F7C03B"/>
            <polygon id="Fill-8" fill="#F7C03B" points="636.36352 97.764615 652.841944 97.764615 652.841944 0.69771 636.36352 0.69771"/>
            <path d="M666.254614,28.46779 L679.008148,28.46779 L679.008148,5.108675 L695.481462,5.108675 L695.481462,28.46779 L720.324283,28.46779 L720.324283,42.624985 L695.481462,42.624985 L695.481462,75.468445 C695.481462,80.541825 697.474202,86.015735 707.039352,86.015735 C710.227736,86.015735 716.870201,85.214675 721.121379,84.013085 L721.121379,98.565675 C713.017571,99.633755 709.164941,100.167795 703.314462,100.167795 C687.643353,100.167795 679.008148,95.094415 679.008148,79.340235 L679.008148,42.624985 L666.254614,42.624985 L666.254614,28.46779" id="Fill-9" fill="#F7C03B"/>
            <path d="M734.27346,0.69771 L750.746775,0.69771 L750.746775,35.014915 C755.396501,29.941535 762.703213,23.66143 777.183787,23.66143 C792.06291,23.66143 805.082142,29.941535 805.082142,51.837175 L805.082142,97.764615 L788.608828,97.764615 L788.608828,57.978635 C788.608828,43.826575 784.35765,37.818625 773.331157,37.818625 C760.173966,37.818625 754.859994,43.292535 750.746775,48.365915 L750.746775,97.764615 L734.27346,97.764615 L734.27346,0.69771" id="Fill-10" fill="#F7C03B"/>
            <polyline id="Fill-11" fill="#1A1918" points="812.409293 91.540995 809.093169 91.540995 809.093169 90.29319 817.181649 90.29319 817.181649 91.540995 813.860416 91.540995 813.860416 97.754345 812.409293 97.754345 812.409293 91.540995"/>
            <polyline id="Fill-12" fill="#1A1918" points="819.537169 92.095575 819.516731 92.095575 819.516731 97.754345 818.229114 97.754345 818.229114 90.29319 820.180977 90.29319 822.495621 95.823585 824.856251 90.29319 826.767237 90.29319 826.767237 97.754345 825.479621 97.754345 825.479621 92.095575 825.459182 92.095575 823.078114 97.754345 821.923347 97.754345 819.537169 92.095575"/>
            <polygon id="Fill-13" fill="#50545E" points="836.991524 147.17872 982.742545 147.17872 982.742545 0.702845 836.991524 0.702845"/>
            <path d="M841.334675,33.24334 C841.334675,33.24334 929.735671,71.1191 978.189902,7.645365 C978.189902,7.645365 939.638054,124.867145 842.627401,143.19396 C842.627401,143.19396 958.293163,83.38148 841.334675,33.24334" id="Fill-14" fill="#F7C03B"/>
            <path d="M922.924589,27.12242 C920.134754,33.69522 911.22874,36.17029 903.038069,32.652815 C894.852508,29.13534 890.47359,20.96042 893.268536,14.38762 C896.063481,7.819955 904.964384,5.344885 913.155055,8.86236 C921.345726,12.379835 925.719534,20.554755 922.924589,27.12242" id="Fill-15" fill="#F7C03B"/>
            <polyline id="Fill-16" fill="#515560" points="334.330615 116.74871 339.164286 116.74871 339.164286 143.09126 350.870354 143.09126 350.870354 147.183855 334.330615 147.183855 334.330615 116.74871"/>
            <path d="M358.565395,147.183855 L363.143587,147.183855 L363.143587,124.250945 L358.565395,124.250945 L358.565395,147.183855 Z M358.565395,121.015895 L363.143587,121.015895 L363.143587,116.4098 L358.565395,116.4098 L358.565395,121.015895 Z" id="Fill-17" fill="#515560"/>
            <path d="M374.093435,127.660585 L370.910162,127.660585 L370.910162,124.250945 L374.093435,124.250945 L374.093435,122.11992 C374.093435,117.770575 376.167928,116.4098 379.903038,116.4098 C380.878969,116.4098 381.727161,116.45088 382.406736,116.53304 L382.406736,120.071055 L381.129339,120.071055 C379.432956,120.071055 378.671627,120.71293 378.671627,122.248295 L378.671627,124.250945 L382.406736,124.250945 L382.406736,127.660585 L378.671627,127.660585 L378.671627,147.183855 L374.093435,147.183855 L374.093435,127.660585" id="Fill-18" fill="#515560"/>
            <path d="M400.699064,133.16017 L400.699064,131.922635 C400.699064,129.026495 399.76401,126.808175 397.173448,126.808175 C394.250763,126.808175 393.361695,129.704315 393.361695,132.68775 L393.361695,133.16017 L400.699064,133.16017 L400.699064,133.16017 Z M393.361695,136.31306 L393.361695,137.632755 C393.361695,140.703485 393.744914,144.626625 397.173448,144.626625 C400.443585,144.626625 400.826804,140.87294 400.826804,139.512165 L405.149516,139.512165 C405.149516,144.58041 402.093982,147.779515 397.137681,147.779515 C393.402572,147.779515 388.783503,146.670355 388.783503,136.05631 C388.783503,130.04836 390.050681,123.655285 397.219434,123.655285 C403.580872,123.655285 405.277256,127.49113 405.277256,133.884205 L405.277256,136.31306 L393.361695,136.31306 L393.361695,136.31306 Z" id="Fill-19" fill="#515560"/>
            <path d="M423.830173,130.94185 L423.830173,130.34619 C423.830173,128.512995 423.191474,126.808175 420.815516,126.808175 C418.996502,126.808175 417.555598,127.660585 417.555598,129.79161 C417.555598,131.583725 418.362913,132.30776 420.779748,133.16017 L423.702433,134.182035 C427.0952,135.332275 428.668954,137.16547 428.668954,140.79078 C428.668954,145.68957 425.102461,147.779515 420.478283,147.779515 C414.709557,147.779515 412.972297,145.09391 412.972297,140.662405 L412.972297,139.809995 L417.044639,139.809995 L417.044639,140.53403 C417.044639,143.17342 417.979694,144.626625 420.606022,144.626625 C423.11483,144.626625 424.341132,143.34801 424.341132,141.258065 C424.341132,139.553245 423.452063,138.444085 421.837433,137.889505 L418.102324,136.56981 C414.66868,135.373355 413.227776,133.627455 413.227776,129.961065 C413.227776,125.657935 416.324187,123.655285 421.030118,123.655285 C426.84483,123.655285 428.157995,127.064925 428.157995,129.919985 L428.157995,130.94185 L423.830173,130.94185" id="Fill-20" fill="#515560"/>
            <path d="M447.630638,135.075525 C446.445213,136.01523 443.900638,136.56981 442.541487,137.20655 C441.233432,137.848425 440.676487,139.2092 440.676487,140.919155 C440.676487,142.83451 441.616652,144.369875 443.522528,144.369875 C446.276597,144.369875 447.630638,142.27993 447.630638,138.91137 L447.630638,135.075525 L447.630638,135.075525 Z M451.963569,142.408305 C451.963569,143.260715 452.474528,144.02583 453.154103,144.02583 C453.44535,144.02583 453.741706,143.98475 453.910322,143.90259 L453.910322,146.886025 C453.363596,147.13764 452.551172,147.440605 451.667213,147.440605 C449.628487,147.440605 447.932103,146.629275 447.804364,144.410955 L447.72261,144.410955 C446.491199,146.670355 444.707953,147.779515 442.035638,147.779515 C438.392501,147.779515 436.098296,145.73065 436.098296,141.34536 C436.098296,136.225765 438.300528,135.16282 441.402049,134.140955 L444.963432,133.16017 C446.613829,132.68775 447.630638,132.220465 447.630638,130.217815 C447.630638,128.12787 446.915295,126.808175 444.49846,126.808175 C441.448035,126.808175 441.01372,128.98028 441.01372,131.1986 L436.696118,131.1986 C436.696118,126.34089 438.683748,123.655285 444.707953,123.655285 C448.739418,123.655285 451.963569,125.23173 451.963569,129.27811 L451.963569,142.408305 L451.963569,142.408305 Z" id="Fill-21" fill="#515560"/>
            <polyline id="Fill-22" fill="#515560" points="459.65861 124.250945 464.579144 124.250945 468.559513 142.32101 468.651486 142.32101 472.253746 124.250945 477.133403 124.250945 471.104089 147.183855 465.764568 147.183855 459.65861 124.250945"/>
            <path d="M484.777348,147.183855 L489.35554,147.183855 L489.35554,124.250945 L484.777348,124.250945 L484.777348,147.183855 Z M484.777348,121.015895 L489.35554,121.015895 L489.35554,116.4098 L484.777348,116.4098 L484.777348,121.015895 Z" id="Fill-23" fill="#515560"/>
            <g id="Group-27" transform="translate(498.780756, 123.240000)">
                <mask id="mask-2" fill="white">
                    <use xlink:href="#path-1"/>
                </mask>
                <g id="Clip-25"/>
                <path d="M0.129714993,1.010945 L4.45242713,1.010945 L4.45242713,3.69655 L4.58016685,3.69655 C5.72471474,1.647685 7.8911804,0.415285 10.4357556,0.415285 C13.910276,0.415285 16.1176184,1.99173 16.1176184,6.638905 L16.1176184,23.943855 L11.5343172,23.943855 L11.5343172,8.21535 C11.5343172,5.231915 10.6452488,4.07654 8.35615298,4.07654 C6.49115307,4.07654 4.70790657,5.570825 4.70790657,8.55426 L4.70790657,23.943855 L0.129714993,23.943855 L0.129714993,1.010945" id="Fill-24" fill="#515560" mask="url(#mask-2)"/>
                <path d="M33.270508,20.10801 C36.8318914,20.10801 37.210001,15.58921 37.210001,11.9639 C37.210001,8.21535 36.750138,4.07654 33.5719738,4.07654 C30.2558506,4.07654 29.7091246,7.491315 29.7091246,11.753365 C29.7091246,15.67137 29.8777411,20.10801 33.270508,20.10801 L33.270508,20.10801 Z M30.0463575,25.905425 C30.0463575,27.30728 31.3186451,28.63211 33.357371,28.63211 C35.7282203,28.63211 37.210001,26.96837 37.210001,24.323845 L37.210001,20.616375 L37.1333572,20.616375 C36.2851654,22.619025 34.1595765,23.7744 31.9522341,23.7744 C26.6127138,23.7744 25.1258235,18.48535 25.1258235,12.22065 C25.1258235,7.193485 25.8922618,0.415285 32.3814396,0.415285 C35.0537545,0.415285 36.9647407,2.161185 37.383727,3.824925 L37.47059,3.824925 L37.47059,1.010945 L41.7933022,1.010945 L41.7933022,22.834695 C41.7933022,28.41644 39.4173434,31.785 33.270508,31.785 C26.4849741,31.785 25.7185358,27.7797 25.7185358,25.905425 L30.0463575,25.905425 L30.0463575,25.905425 Z" id="Fill-26" fill="#515560" mask="url(#mask-2)"/>
            </g>
            <polygon id="Fill-28" fill="#515560" points="564.773071 147.183855 569.611851 147.183855 569.611851 116.74871 564.773071 116.74871"/>
            <path d="M579.033933,124.250945 L583.361755,124.250945 L583.361755,126.93655 L583.484385,126.93655 C584.634042,124.887685 586.800508,123.655285 589.345083,123.655285 C592.819604,123.655285 595.021837,125.23173 595.021837,129.878905 L595.021837,147.183855 L590.443645,147.183855 L590.443645,131.45535 C590.443645,128.471915 589.554576,127.31654 587.265481,127.31654 C585.395371,127.31654 583.617234,128.810825 583.617234,131.79426 L583.617234,147.183855 L579.033933,147.183855 L579.033933,124.250945" id="Fill-29" fill="#515560"/>
            <path d="M602.338768,124.250945 L605.476055,124.250945 L605.476055,117.729495 L610.059356,117.729495 L610.059356,124.250945 L613.789356,124.250945 L613.789356,127.660585 L610.059356,127.660585 L610.059356,141.34536 C610.059356,143.13234 610.565206,143.774215 612.138959,143.774215 C612.818534,143.774215 613.36526,143.728 613.789356,143.64584 L613.789356,147.05548 C612.818534,147.31223 611.541137,147.440605 610.100233,147.440605 C607.003822,147.440605 605.476055,146.588195 605.476055,141.894805 L605.476055,127.660585 L602.338768,127.660585 L602.338768,124.250945" id="Fill-30" fill="#515560"/>
            <path d="M632.37804,133.16017 L632.37804,131.922635 C632.37804,129.026495 631.442986,126.808175 628.852424,126.808175 C625.929739,126.808175 625.040671,129.704315 625.040671,132.68775 L625.040671,133.16017 L632.37804,133.16017 L632.37804,133.16017 Z M625.040671,136.31306 L625.040671,137.632755 C625.040671,140.703485 625.41878,144.626625 628.852424,144.626625 C632.122561,144.626625 632.50578,140.87294 632.50578,139.512165 L636.828492,139.512165 C636.828492,144.58041 633.772958,147.779515 628.811547,147.779515 C625.081548,147.779515 620.462479,146.670355 620.462479,136.05631 C620.462479,130.04836 621.729657,123.655285 628.89841,123.655285 C635.259848,123.655285 636.956232,127.49113 636.956232,133.884205 L636.956232,136.31306 L625.040671,136.31306 L625.040671,136.31306 Z" id="Fill-31" fill="#515560"/>
            <polygon id="Fill-32" fill="#515560" points="645.877574 147.183855 650.460875 147.183855 650.460875 116.74871 645.877574 116.74871"/>
            <polygon id="Fill-33" fill="#515560" points="660.230409 147.183855 664.808601 147.183855 664.808601 116.74871 660.230409 116.74871"/>
            <g id="Group-37" transform="translate(674.465723, 115.945000)">
                <mask id="mask-4" fill="white">
                    <use xlink:href="#path-3"/>
                </mask>
                <g id="Clip-35"/>
                <path d="M0.107301365,31.238855 L4.68549294,31.238855 L4.68549294,8.305945 L0.107301365,8.305945 L0.107301365,31.238855 Z M0.107301365,5.070895 L4.68549294,5.070895 L4.68549294,0.4648 L0.107301365,0.4648 L0.107301365,5.070895 Z" id="Fill-34" fill="#515560" mask="url(#mask-4)"/>
                <path d="M22.0376566,27.40301 C25.6041495,27.40301 25.9822591,22.88421 25.9822591,19.2589 C25.9822591,15.51035 25.5172865,11.37154 22.3391223,11.37154 C19.0281087,11.37154 18.4762731,14.786315 18.4762731,19.048365 C18.4762731,22.96637 18.6448896,27.40301 22.0376566,27.40301 L22.0376566,27.40301 Z M18.8186156,33.200425 C18.8186156,34.60228 20.0909032,35.92711 22.1245196,35.92711 C24.5004784,35.92711 25.9822591,34.26337 25.9822591,31.618845 L25.9822591,27.911375 L25.9005057,27.911375 C25.052314,29.914025 22.926725,31.0694 20.7244922,31.0694 C15.3849719,31.0694 13.8980816,25.78035 13.8980816,19.51565 C13.8980816,14.488485 14.6594103,7.710285 21.1536977,7.710285 C23.820903,7.710285 25.7318893,9.456185 26.1508755,11.119925 L26.2428481,11.119925 L26.2428481,8.305945 L30.5604507,8.305945 L30.5604507,30.129695 C30.5604507,35.71144 28.1896015,39.08 22.0376566,39.08 C15.2521226,39.08 14.4907939,35.0747 14.4907939,33.200425 L18.8186156,33.200425 L18.8186156,33.200425 Z" id="Fill-36" fill="#515560" mask="url(#mask-4)"/>
            </g>
            <path d="M725.321461,133.16017 L725.321461,131.922635 C725.321461,129.026495 724.391516,126.808175 721.806064,126.808175 C718.87316,126.808175 717.984091,129.704315 717.984091,132.68775 L717.984091,133.16017 L725.321461,133.16017 L725.321461,133.16017 Z M717.984091,136.31306 L717.984091,137.632755 C717.984091,140.703485 718.36731,144.626625 721.806064,144.626625 C725.065981,144.626625 725.449201,140.87294 725.449201,139.512165 L729.777022,139.512165 C729.777022,144.58041 726.726598,147.779515 721.760077,147.779515 C718.024968,147.779515 713.40079,146.670355 713.40079,136.05631 C713.40079,130.04836 714.678187,123.655285 721.841831,123.655285 C728.208379,123.655285 729.904762,127.49113 729.904762,133.884205 L729.904762,136.31306 L717.984091,136.31306 L717.984091,136.31306 Z" id="Fill-38" fill="#515560"/>
            <path d="M738.616611,124.250945 L742.939323,124.250945 L742.939323,126.93655 L743.072172,126.93655 C744.211611,124.887685 746.372967,123.655285 748.917542,123.655285 C752.402282,123.655285 754.609624,125.23173 754.609624,129.878905 L754.609624,147.183855 L750.026323,147.183855 L750.026323,131.45535 C750.026323,128.471915 749.132145,127.31654 746.843049,127.31654 C744.978049,127.31654 743.194803,128.810825 743.194803,131.79426 L743.194803,147.183855 L738.616611,147.183855 L738.616611,124.250945" id="Fill-39" fill="#515560"/>
            <path d="M779.345143,138.82921 C779.048787,144.328795 777.183787,147.779515 771.542801,147.779515 C764.925884,147.779515 763.060884,142.83451 763.060884,135.7174 C763.060884,128.60029 764.925884,123.655285 771.542801,123.655285 C778.369212,123.56799 779.38602,129.026495 779.38602,131.881555 L774.807829,131.881555 C774.807829,129.75053 774.210007,126.97763 771.542801,127.064925 C768.231788,127.064925 767.639075,130.64402 767.639075,135.7174 C767.639075,140.79078 768.231788,144.369875 771.542801,144.369875 C774.087376,144.410955 775.017322,142.27993 775.017322,138.82921 L779.345143,138.82921" id="Fill-40" fill="#515560"/>
            <path d="M798.996622,133.16017 L798.996622,131.922635 C798.996622,129.026495 798.061567,126.808175 795.476115,126.808175 C792.548321,126.808175 791.664362,129.704315 791.664362,132.68775 L791.664362,133.16017 L798.996622,133.16017 L798.996622,133.16017 Z M791.664362,136.31306 L791.664362,137.632755 C791.664362,140.703485 792.042472,144.626625 795.476115,144.626625 C798.741143,144.626625 799.124362,140.87294 799.124362,139.512165 L803.447074,139.512165 C803.447074,144.58041 800.396649,147.779515 795.435239,147.779515 C791.700129,147.779515 787.081061,146.670355 787.081061,136.05631 C787.081061,130.04836 788.348239,123.655285 795.516992,123.655285 C801.88354,123.655285 803.579923,127.49113 803.579923,133.884205 L803.579923,136.31306 L791.664362,136.31306 L791.664362,136.31306 Z" id="Fill-41" fill="#515560"/>
        </g>
    </g>
</symbol><symbol id="logo" viewBox="0 0 827 100">
    <!-- Generator: Sketch 39.1 (31720) - http://www.bohemiancoding.com/sketch -->
    <title>Group</title>
    <desc>Created with Sketch.</desc>

    <g id="Navigation" stroke="none" stroke-width="1" fill="none" fill-rule="evenodd">
        <g id="Group">
            <path d="M57.879058,43.7062121 C68.6318188,43.7062121 78.0570782,42.7741515 78.0570782,30.2579091 C78.0570782,17.8748182 68.6318188,16.9427576 57.879058,16.9427576 L18.8454131,16.9427576 L18.8454131,43.7062121 L57.879058,43.7062121 L57.879058,43.7062121 Z M0,0.693151515 L53.7638039,0.693151515 C70.097176,0.693151515 96.9075971,0.693151515 96.9075971,30.3910606 C96.9075971,59.950697 70.097176,59.950697 53.7638039,59.950697 L18.8454131,59.950697 L18.8454131,97.4994242 L0,97.4994242 L0,0.693151515 L0,0.693151515 Z" id="Fill-1" fill="#50545E"/>
            <path d="M156.512407,53.5594242 C153.990154,41.4426364 145.759646,36.9154848 133.939778,36.9154848 C125.31102,36.9154848 115.359866,39.8448182 112.036006,53.5594242 L156.512407,53.5594242 L156.512407,53.5594242 Z M172.707923,76.0620303 C171.513172,81.920697 161.955162,99.8961515 135.537886,99.8961515 C110.04986,99.8961515 94.7784892,83.9179697 94.7784892,61.5485152 C94.7784892,41.3094848 108.058608,23.5952121 134.343135,23.5952121 C161.158661,23.8666364 174.035424,40.5105758 174.035424,66.3419697 L111.510112,66.3419697 C112.173862,70.8691212 114.691009,85.7820909 135.001779,86.581 C145.361396,86.581 152.264403,81.6543939 154.653905,76.0620303 L172.707923,76.0620303 L172.707923,76.0620303 Z" id="Fill-2" fill="#50545E"/>
            <path d="M190.358585,25.9970606 L206.824707,25.9970606 L206.824707,36.6491818 L207.217852,36.6491818 C210.802105,30.7905152 217.970613,23.5952121 232.179983,23.5952121 C234.564379,23.5952121 236.290131,23.5952121 238.015883,23.8666364 L238.015883,41.7089394 C236.427987,41.3094848 233.369628,40.3774242 227.931978,40.3774242 C206.952352,40.5105758 206.952352,54.4914848 206.824707,59.5512424 L206.824707,97.4994242 L190.358585,97.4994242 L190.358585,25.9970606" id="Fill-3" fill="#50545E"/>
            <path d="M297.493048,61.4153636 C287.929933,61.8148182 279.566674,63.1463333 271.867167,65.0104545 C261.640301,67.4071818 256.866402,70.8691212 256.733651,77.1272424 C256.600901,83.2522121 260.583405,87.1136061 268.681163,87.1136061 C281.15457,87.1136061 291.121042,81.6543939 297.493048,77.793 L297.493048,61.4153636 L297.493048,61.4153636 Z M313.948959,85.9152424 C313.948959,90.708697 314.214459,95.5021515 315.27646,97.4994242 L298.417193,97.4994242 C297.886193,95.102697 297.493048,92.7059697 297.493048,90.3092424 C290.584935,94.3037879 280.363175,99.8961515 266.286555,99.8961515 C256.866402,99.8961515 238.674528,95.9016061 238.674528,78.3256061 C238.674528,54.2251818 274.522169,50.7632424 297.493048,49.4317273 L297.493048,46.2360909 C297.493048,40.7717576 292.576187,36.9154848 279.030568,36.9154848 C263.902159,36.9154848 260.716155,42.5078485 259.786904,46.3692424 L242.657032,46.3692424 C246.644641,26.924 265.62791,23.5952121 278.902924,23.5952121 C313.285208,23.5952121 313.948959,40.3774242 313.948959,50.2306364 L313.948959,85.9152424 L313.948959,85.9152424 Z" id="Fill-4" fill="#50545E"/>
            <polyline id="Fill-5" fill="#F7C03B" points="334.709037 0.693151515 352.997921 0.693151515 352.997921 39.0459091 415.839792 39.0459091 415.839792 0.693151515 434.128675 0.693151515 434.128675 97.4994242 415.839792 97.4994242 415.839792 55.823 352.997921 55.823 352.997921 97.4994242 334.709037 97.4994242 334.709037 0.693151515"/>
            <path d="M509.249933,53.5594242 C506.727681,41.4426364 498.497172,36.9154848 486.677305,36.9154848 C478.048546,36.9154848 468.097392,39.8448182 464.773533,53.5594242 L509.249933,53.5594242 L509.249933,53.5594242 Z M525.445449,76.0620303 C524.250698,81.920697 514.692689,99.8961515 488.275412,99.8961515 C462.787387,99.8961515 447.516016,83.9179697 447.516016,61.5485152 C447.516016,41.3094848 460.796135,23.5952121 487.075555,23.5952121 C513.896188,23.8666364 526.772951,40.5105758 526.772951,66.3419697 L464.247638,66.3419697 C464.911389,70.8691212 467.428536,85.7820909 487.739306,86.581 C498.098922,86.581 505.001929,81.6543939 507.391431,76.0620303 L525.445449,76.0620303 L525.445449,76.0620303 Z" id="Fill-6" fill="#F7C03B"/>
            <path d="M598.325272,61.4153636 C588.762157,61.8148182 580.404004,63.1463333 572.699391,65.0104545 C562.477631,67.4071818 557.698626,70.8691212 557.565876,77.1272424 C557.438231,83.2522121 561.41563,87.1136061 569.513388,87.1136061 C581.9919,87.1136061 591.953266,81.6543939 598.325272,77.793 L598.325272,61.4153636 L598.325272,61.4153636 Z M614.786289,85.9152424 C614.786289,90.708697 615.046683,95.5021515 616.11379,97.4994242 L599.249418,97.4994242 C598.723523,95.102697 598.325272,92.7059697 598.325272,90.3092424 C591.422266,94.3037879 581.1954,99.8961515 567.123885,99.8961515 C557.698626,99.8961515 539.511858,95.9016061 539.511858,78.3256061 C539.511858,54.2251818 575.359499,50.7632424 598.325272,49.4317273 L598.325272,46.2360909 C598.325272,40.7717576 593.413518,36.9154848 579.867898,36.9154848 C564.734383,36.9154848 561.54838,42.5078485 560.619129,46.3692424 L543.494362,46.3692424 C547.476866,26.924 566.460135,23.5952121 579.735148,23.5952121 C614.117432,23.5952121 614.786289,40.3774242 614.786289,50.2306364 L614.786289,85.9152424 L614.786289,85.9152424 Z" id="Fill-7" fill="#F7C03B"/>
            <polygon id="Fill-8" fill="#F7C03B" points="635.888454 97.4994242 652.354577 97.4994242 652.354577 0.693151515 635.888454 0.693151515"/>
            <path d="M665.757234,28.3886667 L678.501247,28.3886667 L678.501247,5.09227273 L694.962263,5.09227273 L694.962263,28.3886667 L719.786538,28.3886667 L719.786538,42.5078485 L694.962263,42.5078485 L694.962263,75.2631212 C694.962263,80.3228788 696.953515,85.7820909 706.511525,85.7820909 C709.697528,85.7820909 716.335035,84.9831818 720.583039,83.7848182 L720.583039,98.2983333 C712.485281,99.3635455 708.635527,99.8961515 702.789416,99.8961515 C687.130006,99.8961515 678.501247,94.8363939 678.501247,79.1245152 L678.501247,42.5078485 L665.757234,42.5078485 L665.757234,28.3886667" id="Fill-9" fill="#F7C03B"/>
            <path d="M733.725302,0.693151515 L750.186319,0.693151515 L750.186319,34.9182121 C754.832573,29.8584545 762.133831,23.5952121 776.603595,23.5952121 C791.47161,23.5952121 804.481123,29.8584545 804.481123,51.695303 L804.481123,97.4994242 L788.020107,97.4994242 L788.020107,57.8202727 C788.020107,43.7062121 783.772102,37.7143939 772.753841,37.7143939 C759.606472,37.7143939 754.296467,43.1736061 750.186319,48.2333636 L750.186319,97.4994242 L733.725302,97.4994242 L733.725302,0.693151515" id="Fill-10" fill="#F7C03B"/>
            <polyline id="Fill-11" fill="#1A1918" points="811.802804 91.2925152 808.489156 91.2925152 808.489156 90.0480606 816.571597 90.0480606 816.571597 91.2925152 813.252844 91.2925152 813.252844 97.4891818 811.802804 97.4891818 811.802804 91.2925152"/>
            <polyline id="Fill-12" fill="#1A1918" points="818.925359 91.8456061 818.904936 91.8456061 818.904936 97.4891818 817.618281 97.4891818 817.618281 90.0480606 819.568686 90.0480606 821.881602 95.5636061 824.24047 90.0480606 826.15003 90.0480606 826.15003 97.4891818 824.863374 97.4891818 824.863374 91.8456061 824.842951 91.8456061 822.46366 97.4891818 821.309755 97.4891818 818.925359 91.8456061"/>
        </g>
    </g>
</symbol></svg>