<?xml version="1.0" encoding="UTF-8" standalone="no"?>
<svg width="85px" height="85px" viewBox="0 0 85 85" version="1.1" xmlns="http://www.w3.org/2000/svg" xmlns:xlink="http://www.w3.org/1999/xlink">
    <!-- Generator: Sketch 3.8.2 (29753) - http://www.bohemiancoding.com/sketch -->
    <title>Emoji Sorry</title>
    <desc>Created with Sketch.</desc>
    <defs></defs>
    <g id="Symbols" stroke="none" stroke-width="1" fill="none">
        <g id="Emoji-Sorry">
            <path d="M58.0833333,34 C55.7401667,34 53.8333333,32.0931667 53.8333333,29.75 C53.8333333,27.4068333 55.7401667,25.5 58.0833333,25.5 C60.4265,25.5 62.3333333,27.4068333 62.3333333,29.75 C62.3333333,32.0931667 60.4265,34 58.0833333,34 L58.0833333,34 Z M42.5,68 C37.9865,68 31.1666667,68 31.1666667,61.2708333 C31.1666667,55.607 36.2496667,51 42.5,51 C48.7503333,51 53.8333333,55.607 53.8333333,61.2708333 C53.8333333,68 47.0135,68 42.5,68 L42.5,68 Z M26.9166667,34 C24.5735,34 22.6666667,32.0931667 22.6666667,29.75 C22.6666667,27.4068333 24.5735,25.5 26.9166667,25.5 C29.2598333,25.5 31.1666667,27.4068333 31.1666667,29.75 C31.1666667,32.0931667 29.2598333,34 26.9166667,34 L26.9166667,34 Z M84.9688333,41.7576667 C84.9631667,41.2391667 84.6741667,40.766 84.2151667,40.5223333 C83.7561667,40.2786667 83.2036667,40.3098333 82.7673333,40.596 C80.9001667,41.8426667 78.7326667,42.5 76.5,42.5 C70.2496667,42.5 65.1666667,37.417 65.1666667,31.1666667 C65.1666667,28.2766667 67.473,21.828 71.6606667,13.0078333 C71.927,12.4468333 71.7995,11.781 71.3461667,11.3616667 C63.444,4.03466667 53.1986667,0 42.5,0 C19.0655,0 0,19.0655 0,42.5 C0,65.9345 19.0655,85 42.5,85 C65.9345,85 85,65.9345 85,42.5 L84.9688333,41.7576667 Z" id="Fill-1" fill="#E7E818"></path>
            <path d="M77.7727333,12.12865 C77.2967333,11.1539833 75.7044,11.1539833 75.2284,12.12865 C74.4889,13.64165 68.0005667,27.04615 68.0005667,31.1658167 C68.0005667,35.8549833 71.8114,39.6658167 76.5005667,39.6658167 C81.1869,39.6658167 85.0005667,35.8549833 85.0005667,31.1658167 C85.0005667,27.04615 78.5122333,13.64165 77.7727333,12.12865" id="Fill-3" fill="#33ADFF"></path>
        </g>
    </g>
</svg>