<?xml version="1.0" encoding="UTF-8" standalone="no"?>
<svg width="26px" height="26px" viewBox="0 0 26 26" version="1.1" xmlns="http://www.w3.org/2000/svg" xmlns:xlink="http://www.w3.org/1999/xlink">
    <defs></defs>
    <g id="Symbols" stroke="none" stroke-width="1" fill="none" fill-rule="evenodd">
        <g id="eyeball-inactive">
            <path d="M24.5,14 C24.5,14 19.352,20.5 13,20.5 C6.648,20.5 1.5,14 1.5,14 C1.5,14 6.648,7.5 13,7.5 C19.352,7.5 24.5,14 24.5,14 L24.5,14 Z" id="Stroke-1" stroke="#999999" stroke-width="2" stroke-linecap="round" stroke-linejoin="round" opacity="0.5"></path>
            <path d="M17,14 C17,16.209 15.209,18 13,18 C10.791,18 9,16.209 9,14 C9,11.791 10.791,10 13,10 C15.209,10 17,11.791 17,14 L17,14 Z" id="Stroke-3" stroke="#999999" stroke-linecap="round" stroke-linejoin="round" fill="#999999" opacity="0.5"></path>
            <path d="M21.2132032,5 L4.24264064,21.9705629" id="Line" stroke="#FFFFFF" stroke-width="4" stroke-linecap="square"></path>
            <path d="M21.2132032,5 L4.24264064,21.9705629" id="Line-Copy" stroke="#CCCCCC" stroke-width="2" stroke-linecap="round" stroke-linejoin="round"></path>
        </g>
    </g>
</svg>