<?xml version="1.0" encoding="UTF-8" standalone="no"?>
<svg width="50px" height="52px" viewBox="0 0 50 52" version="1.1" xmlns="http://www.w3.org/2000/svg" xmlns:xlink="http://www.w3.org/1999/xlink">
    <!-- Generator: Sketch 39.1 (31720) - http://www.bohemiancoding.com/sketch -->
    <title>MDSV - Inactive</title>
    <desc>Created with Sketch.</desc>
    <defs></defs>
    <g id="Page-1" stroke-width="1" fill-rule="evenodd" stroke-linecap="round" stroke-linejoin="round">
        <g id="MDSV---Inactive" transform="translate(1.000000, 1.000000)" stroke-width="2">
            <path d="M47.001931,12.42 L45.0024828,10.8983333 C45.0405517,10.605 45.0769655,10.3116667 45.0769655,10 C45.0769655,9.68833333 45.0587586,9.395 45.0024828,9.10166667 L46.9837241,7.58 C47.1508966,7.43333333 47.2071724,7.195 47.0946207,6.99333333 L45.2275862,3.82166667 C45.1150345,3.62 44.8717241,3.54666667 44.6482759,3.62 L42.3310345,4.53666667 C41.846069,4.17 41.3213793,3.85833333 40.7437241,3.63833333 L40.3878621,1.21833333 C40.3696552,0.998333333 40.1644138,0.833333333 39.9393103,0.833333333 L36.2035862,0.833333333 C35.9784828,0.833333333 35.7732414,0.998333333 35.7351724,1.21833333 L35.3809655,3.63833333 C34.8198621,3.87666667 34.2786207,4.17 33.792,4.53666667 L31.4764138,3.62 C31.2711724,3.54666667 31.0278621,3.62 30.8971034,3.82166667 L29.0284138,6.99333333 C28.9158621,7.195 28.953931,7.43333333 29.1409655,7.58 L31.1205517,9.10166667 C31.0841379,9.395 31.0642759,9.68833333 31.0642759,10 C31.0642759,10.3116667 31.0841379,10.605 31.1205517,10.8983333 L29.1409655,12.42 C28.9721379,12.5666667 28.9158621,12.805 29.0284138,13.0066667 L30.8971034,16.1783333 C31.0096552,16.38 31.2513103,16.4533333 31.4764138,16.38 L33.792,15.4633333 C34.2786207,15.83 34.8016552,16.1416667 35.3809655,16.3616667 L35.7351724,18.7816667 C35.7732414,19.0016667 35.9602759,19.1666667 36.2035862,19.1666667 L39.9393103,19.1666667 C40.1644138,19.1666667 40.3696552,19.0016667 40.406069,18.7816667 L40.761931,16.3616667 C41.3213793,16.1233333 41.8642759,15.83 42.3310345,15.4633333 L44.6664828,16.38 C44.8717241,16.4533333 45.1150345,16.38 45.2457931,16.1783333 L47.1144828,13.0066667 C47.2253793,12.805 47.1707586,12.5666667 47.001931,12.42 L47.001931,12.42 Z" id="Path"></path>
            <path d="M40.5517241,10 C40.5517241,11.38 39.4394483,12.5 38.0689655,12.5 C36.6984828,12.5 35.5862069,11.38 35.5862069,10 C35.5862069,8.62 36.6984828,7.5 38.0689655,7.5 C39.4394483,7.5 40.5517241,8.62 40.5517241,10 L40.5517241,10 Z" id="Path"></path>
            <path d="M30.0198621,34.1183333 C30.0926897,33.595 30.1423448,33.0483333 30.1423448,32.5 C30.1423448,31.9516667 30.0926897,31.405 30.0198621,30.8566667 L33.6182069,28.095 C33.9343448,27.8333333 34.032,27.38 33.8135172,27.0233333 L30.4088276,21.2616667 C30.1903448,20.905 29.7533793,20.7616667 29.3644138,20.905 L25.1337931,22.5716667 C24.2598621,21.905 23.3114483,21.3566667 22.2653793,20.9283333 L21.6331034,16.5233333 C21.5602759,16.1433333 21.1961379,15.8333333 20.7823448,15.8333333 L13.9762759,15.8333333 C13.5624828,15.8333333 13.1983448,16.1433333 13.1255172,16.5483333 L12.4932414,20.9516667 C11.472,21.3816667 10.4987586,21.9283333 9.62482759,22.595 L5.3942069,20.9283333 C5.00524138,20.785 4.56827586,20.9283333 4.34813793,21.285 L0.945103448,27.0483333 C0.72662069,27.405 0.824275862,27.8566667 1.14041379,28.1183333 L4.73710345,30.8816667 C4.66427586,31.405 4.61627586,31.9516667 4.61627586,32.5 C4.61627586,33.0483333 4.66427586,33.595 4.73710345,34.1433333 L1.14041379,36.905 C0.824275862,37.1666667 0.72662069,37.6183333 0.945103448,37.9766667 L4.34813793,43.7383333 C4.56827586,44.095 5.00524138,44.2383333 5.3942069,44.095 L9.62482759,42.4283333 C10.4987586,43.095 11.4471724,43.6433333 12.4932414,44.0716667 L13.1255172,48.4766667 C13.1983448,48.8566667 13.5624828,49.1666667 13.9762759,49.1666667 L20.7823448,49.1666667 C21.1961379,49.1666667 21.5602759,48.8566667 21.6331034,48.4516667 L22.2653793,44.0466667 C23.2866207,43.6183333 24.2598621,43.0716667 25.1337931,42.405 L29.3644138,44.0716667 C29.7533793,44.215 30.1903448,44.0716667 30.4088276,43.715 L33.8135172,37.9516667 C34.032,37.595 33.9343448,37.1433333 33.6182069,36.88 L30.0198621,34.1183333 L30.0198621,34.1183333 Z" id="Path" stroke="#F9C623"></path>
            <path d="M22.3448276,32.5 C22.3448276,35.2616667 20.121931,37.5 17.3793103,37.5 C14.6366897,37.5 12.4137931,35.2616667 12.4137931,32.5 C12.4137931,29.7383333 14.6366897,27.5 17.3793103,27.5 C20.121931,27.5 22.3448276,29.7383333 22.3448276,32.5 L22.3448276,32.5 Z" id="Path" stroke="#F9C623"></path>
        </g>
    </g>
</svg>