<?xml version="1.0" encoding="UTF-8" standalone="no"?>
<svg width="56px" height="41px" viewBox="0 0 56 41" version="1.1" xmlns="http://www.w3.org/2000/svg" xmlns:xlink="http://www.w3.org/1999/xlink">
    <!-- Generator: Sketch 39.1 (31720) - http://www.bohemiancoding.com/sketch -->
    <title>Our Story - Inactive</title>
    <desc>Created with Sketch.</desc>
    <defs></defs>
    <g id="Page-1" stroke-width="1" fill-rule="evenodd" stroke-linecap="round" stroke-linejoin="round">
        <g id="Our-Story---Inactive" transform="translate(1.000000, 1.000000)" stroke-width="2">
            <polyline id="Stroke-17" stroke="#F9C623" points="32.5862069 1.85751429 32.5862069 23.2146571 37.2413793 19.5003714 41.8965517 23.2146571 41.8965517 1.85751429"></polyline>
            <path d="M4.65517241,34.3575143 C6.59544828,32.4223714 13.3454483,30.6432286 16.0603448,30.6432286 C18.7752414,30.6432286 25.5941379,32.0268 27,33.4289429 L27,2.78608571 C25.5941379,1.38394286 18.5424828,0.928942857 15.8275862,0.928942857 C13.1126897,0.928942857 6.59544828,1.77951429 4.65517241,3.71465714 L4.65517241,34.3575143 L4.65517241,34.3575143 Z" id="Stroke-1"></path>
            <path d="M27,33.4289429 C28.9402759,31.4938 34.2937241,30.6432286 37.0086207,30.6432286 C39.7235172,30.6432286 47.9389655,32.9553714 49.3448276,34.3575143 L49.3448276,2.78608571 C47.9389655,1.38394286 39.9562759,0.928942857 37.2413793,0.928942857 C34.5264828,0.928942857 28.9402759,0.850942857 27,2.78608571 L27,33.4289429 L27,33.4289429 Z" id="Stroke-3"></path>
            <path d="M10.2413793,13.0003714 C10.2413793,13.0003714 12.6173793,11.8396571 16.0603448,11.8396571 C19.9390345,11.8396571 21.8793103,13.0003714 21.8793103,13.0003714" id="Stroke-5"></path>
            <path d="M10.2413793,18.8039429 C10.2413793,18.8039429 12.6173793,17.6432286 16.0603448,17.6432286 C19.9390345,17.6432286 21.8793103,18.8039429 21.8793103,18.8039429" id="Stroke-7"></path>
            <path d="M10.2413793,24.3753714 C10.2413793,24.3753714 12.6173793,23.2146571 16.0603448,23.2146571 C19.9390345,23.2146571 21.8793103,24.3753714 21.8793103,24.3753714" id="Stroke-9"></path>
            <path d="M4.65517241,3.71465714 L0.931034483,5.10751429 L0.931034483,38.0718 L21.4137931,35.2860857 C21.4137931,36.5675143 24.4284828,38.0718 27,38.0718 C29.5715172,38.0718 32.5862069,36.5675143 32.5862069,35.2860857 L53.0689655,38.0718 L53.0689655,4.64322857 L49.3448276,3.71465714" id="Stroke-11"></path>
            <path d="M21.1764706,35.2860857 L21.1764706,31.5718" id="Stroke-13"></path>
            <path d="M31.7647059,35.2860857 L31.7647059,31.5718" id="Stroke-15"></path>
        </g>
    </g>
</svg>