<?xml version="1.0" encoding="UTF-8" standalone="no"?>
<svg width="33px" height="56px" viewBox="0 0 33 56" version="1.1" xmlns="http://www.w3.org/2000/svg" xmlns:xlink="http://www.w3.org/1999/xlink">
    <!-- Generator: Sketch 39.1 (31720) - http://www.bohemiancoding.com/sketch -->
    <title>Conferences - Inactive</title>
    <desc>Created with Sketch.</desc>
    <defs></defs>
    <g id="Page-1" stroke-width="1" fill-rule="evenodd" stroke-linecap="round" stroke-linejoin="round">
        <g id="Conferences---Inactive" transform="translate(1.000000, 1.000000)" stroke-width="2">
            <path d="M24.6176471,53.1 L6.38235294,53.1 C6.38235294,50.5926 8.401,47.7 10.9411765,47.7 L20.0588235,47.7 C22.599,47.7 24.6176471,50.5926 24.6176471,53.1 L24.6176471,53.1 Z" id="Stroke-1"></path>
            <path d="M6.38235294,18.6923077 L24.6176471,18.6923077" id="Stroke-9" stroke="#F9C623"></path>
            <path d="M6.38235294,9.34615385 L10.0294118,9.34615385" id="Stroke-11" stroke="#F9C623"></path>
            <path d="M6.38235294,14.5384615 L10.0294118,14.5384615" id="Stroke-13" stroke="#F9C623"></path>
            <path d="M20.9705882,9.34615385 L24.6176471,9.34615385" id="Stroke-15" stroke="#F9C623"></path>
            <path d="M20.9705882,14.5384615 L24.6176471,14.5384615" id="Stroke-17" stroke="#F9C623"></path>
            <path d="M6.38235294,24.3 L0.911764706,24.3 L0.911764706,26.1 C0.911764706,34.2 7.29411765,38.7 15.5,38.7 C23.7058824,38.7 30.0882353,34.2 30.0882353,26.1 L30.0882353,24.3 L24.6978824,24.3" id="Stroke-3"></path>
            <path d="M15.5,38.7 L15.5,47.7" id="Stroke-5"></path>
            <path d="M15.5,0.9 C10.4214706,0.9 6.38235294,4.887 6.38235294,9.9 L6.38235294,26.1 C6.38235294,31.113 10.4214706,35.1 15.5,35.1 C20.5785294,35.1 24.6176471,31.113 24.6176471,26.1 L24.6176471,9.9 C24.6176471,4.887 20.5785294,0.9 15.5,0.9 L15.5,0.9 Z" id="Stroke-7"></path>
        </g>
    </g>
</svg>