<?xml version="1.0" encoding="UTF-8" standalone="no"?>
<svg width="48px" height="49px" viewBox="0 0 48 49" version="1.1" xmlns="http://www.w3.org/2000/svg" xmlns:xlink="http://www.w3.org/1999/xlink">
    <!-- Generator: Sketch 39.1 (31720) - http://www.bohemiancoding.com/sketch -->
    <title>PeraAnalytics - Inactive</title>
    <desc>Created with Sketch.</desc>
    <defs></defs>
    <g id="Navigation" stroke-width="1" fill-rule="evenodd" stroke-linecap="round" stroke-linejoin="round">
        <g id="PeraAnalytics---Inactive" transform="translate(1.000000, 1.000000)" stroke-width="2">
            <polygon id="Stroke-1" points="5.55172414 28.9833333 2.37931034 25.85 2.37931034 46.2166667 8.72413793 46.2166667 8.72413793 25.85"></polygon>
            <polygon id="Stroke-3" points="16.6551724 16.45 13.4827586 19.5833333 13.4827586 46.2166667 19.8275862 46.2166667 19.8275862 19.5833333"></polygon>
            <polygon id="Stroke-5" points="27.7586207 13.3166667 24.5862069 18.0166667 24.5862069 46.2166667 30.9310345 46.2166667 30.9310345 16.45"></polygon>
            <polyline id="Stroke-7" stroke="#F9C623" points="42.0344828 3.91666667 32.5172414 13.3166667 27.7586207 8.61666667 21.4137931 16.45 16.6551724 11.75 5.55172414 24.2833333 0.793103448 19.5833333"></polyline>
            <polygon id="Stroke-9" points="39.6551724 10.9666667 35.6896552 14.8833333 35.6896552 46.2166667 42.0344828 46.2166667 42.0344828 13.3182333"></polygon>
            <polyline id="Stroke-11" stroke="#F9C623" points="45.2068966 0.783333333 45.2068966 7.05 38.862069 0.783333333 44.4137931 0.783333333"></polyline>
        </g>
    </g>
</svg>