<?xml version="1.0" encoding="UTF-8" standalone="no"?>
<svg width="49px" height="43px" viewBox="0 0 49 43" version="1.1" xmlns="http://www.w3.org/2000/svg" xmlns:xlink="http://www.w3.org/1999/xlink">
    <!-- Generator: Sketch 39.1 (31720) - http://www.bohemiancoding.com/sketch -->
    <title>Use Cases - Inactive</title>
    <desc>Created with Sketch.</desc>
    <defs></defs>
    <g id="Page-1" stroke-width="1" fill-rule="evenodd" stroke-linecap="round" stroke-linejoin="round">
        <g id="Use-Cases---Inactive" transform="translate(1.000000, 1.000000)" stroke-width="2">
            <polygon id="Stroke-1" points="0.810344828 40.18 46.1896552 40.18 46.1896552 36.9 0.810344828 36.9"></polygon>
            <polygon id="Stroke-3" points="18.637931 36.9 28.362069 36.9 28.362069 22.14 18.637931 22.14"></polygon>
            <polygon id="Stroke-4" points="31.6034483 28.7 38.0862069 28.7 38.0862069 22.14 31.6034483 22.14"></polygon>
            <polygon id="Stroke-5" points="8.9137931 28.7 15.3965517 28.7 15.3965517 22.14 8.9137931 22.14"></polygon>
            <polygon id="Stroke-6" points="31.6034483 15.58 38.0862069 15.58 38.0862069 9.02 31.6034483 9.02"></polygon>
            <polygon id="Stroke-7" points="8.9137931 15.58 15.3965517 15.58 15.3965517 9.02 8.9137931 9.02"></polygon>
            <path d="M19.8444444,5.74 L19.8444444,17.22" id="Stroke-8" stroke="#F9C623"></path>
            <path d="M27.1555556,5.74 L27.1555556,17.22" id="Stroke-9" stroke="#F9C623"></path>
            <path d="M19.8444444,11.5641026 L27.1555555,11.5641026" id="Stroke-10" stroke="#F9C623"></path>
            <polygon id="Stroke-11" points="31.6034483 5.74 31.6034483 0.82 15.3965517 0.82 15.3965517 5.74 4.05172414 5.74 4.05172414 36.9 42.9482759 36.9 42.9482759 5.74"></polygon>
        </g>
    </g>
</svg>