<?xml version="1.0" encoding="UTF-8" standalone="no"?>
<svg width="48px" height="54px" viewBox="0 0 48 54" version="1.1" xmlns="http://www.w3.org/2000/svg" xmlns:xlink="http://www.w3.org/1999/xlink">
    <!-- Generator: Sketch 39.1 (31720) - http://www.bohemiancoding.com/sketch -->
    <title>White Papers - Inactive</title>
    <desc>Created with Sketch.</desc>
    <defs></defs>
    <g id="Page-1" stroke-width="1" fill-rule="evenodd" stroke-linecap="round" stroke-linejoin="round">
        <g id="White-Papers---Inactive" transform="translate(1.000000, 1.000000)" stroke-width="2">
            <polyline id="Stroke-1" points="23.8846154 45.9333333 0.884615385 45.9333333 0.884615385 14.7333333 15.0384615 0.866666667 36.2692308 0.866666667 36.2692308 25.1333333"></polyline>
            <polyline id="Stroke-3" points="0.884615385 14.7333333 15.0384615 14.7333333 15.0384615 0.866666667"></polyline>
            <path d="M36.2692308,51.1333333 C36.2692308,51.1333333 27.4230769,47.1137333 27.4230769,44.2 L27.4230769,32.0666667 L36.2692308,28.6 L45.1153846,32.0666667 L45.1153846,44.2 C45.1153846,47.1137333 36.2692308,51.1333333 36.2692308,51.1333333 L36.2692308,51.1333333 Z" id="Stroke-5" stroke="#F9C623"></path>
            <polygon id="Stroke-7" stroke="#F9C623" points="36.2692308 32.9333333 32.7307692 34.6666667 32.7307692 39 36.2692308 39"></polygon>
            <path d="M36.2692308,39 L36.2692308,45.0666667 C38.1446154,44.1601333 39.0186154,43.1686667 39.8076923,42.4666667 L39.8076923,39 L36.2692308,39 L36.2692308,39 Z" id="Stroke-9" stroke="#F9C623"></path>
        </g>
    </g>
</svg>