<?xml version="1.0" encoding="UTF-8" standalone="no"?>
<svg width="62px" height="31px" viewBox="0 0 62 31" version="1.1" xmlns="http://www.w3.org/2000/svg" xmlns:xlink="http://www.w3.org/1999/xlink">
    <!-- Generator: Sketch 39.1 (31720) - http://www.bohemiancoding.com/sketch -->
    <title>Page 1</title>
    <desc>Created with Sketch.</desc>
    <defs></defs>
    <g id="Page-1" stroke-width="1" fill-rule="evenodd" stroke-linecap="round" stroke-linejoin="round">
        <g transform="translate(1.000000, 1.000000)" stroke-width="2">
            <path d="M15.7494493,16.4767142 C16.5115994,17.1010274 18.8298756,19.6372996 19.937087,20.5412531 C23.9454938,23.7977616 29.1699905,27.337162 29.9874174,27.857423 C30.6808902,28.2996448 31.5016672,28.6703307 32.5,28.6703307 C33.4564564,28.6703307 34.7043725,28.6817114 35.0125826,27.857423 C36.5720589,29.240992 39.010939,27.4021946 39.2002203,25.4186997 C40.4749372,26.5714029 43.6240407,25.1016656 43.3878579,22.9799764 C44.9004327,23.9928594 47.8686302,22.8255239 46.7379681,20.5412531 C45.3208715,17.6781919 36.5720589,11.4870864 33.3375275,8.34763658 C31.494967,8.99145954 31.3844133,9.83688361 29.9874174,9.97345212 C28.9689839,11.4513184 27.5602626,12.4300594 24.9622522,11.5992676 C22.3659168,10.7684759 24.8131723,6.86651864 26.6373073,5.09600552 C30.2621264,1.57774071 32.4363479,0.811981595 36.6876377,2.65728222 C40.9355773,4.50258285 44.2253855,5.90891329 44.2253855,5.90891329" id="Stroke-1"></path>
            <path d="M28.3123623,3 L18.2620319,3" id="Stroke-3"></path>
            <path d="M46.7379681,20.5412531 L49.2505507,18.9154375" id="Stroke-5"></path>
            <path d="M43.3878579,22.9799764 C42.3007472,22.1475588 36.6876377,16.4767142 36.6876377,16.4767142" id="Stroke-7"></path>
            <path d="M39.2002203,25.4186997 C37.8300252,24.3554163 33.9053712,20.3266454 33.3375275,19.7283453" id="Stroke-9"></path>
            <path d="M35.0125826,27.857423 C33.6038613,26.7030939 31.13148,24.1684475 29.9874174,22.9799764" id="Stroke-11"></path>
            <path d="M14.9119218,18.1025298 C14.9119218,18.1025298 17.7879913,7.11852004 18.2620319,1.84437446 C16.5869769,0.218558926 8.21170153,0.218558926 8.21170153,0.218558926 L0.627929687,18.1025292 L14.9119218,18.1025298 Z" id="Stroke-13" stroke="#F9C623"></path>
            <path d="M50.0880782,19.7283453 L59.6464849,19.7283447 L56.7882985,1.84437446 C48.6374805,1.84437446 43.3878579,3.47018999 43.3878579,3.47018999 C44.8066296,5.68455074 49.3326284,17.0733885 50.0880782,19.7283453 Z" id="Stroke-15" stroke="#F9C623"></path>
        </g>
    </g>
</svg>