<?xml version="1.0" encoding="UTF-8" standalone="no"?>
<svg width="54px" height="54px" viewBox="0 0 54 54" version="1.1" xmlns="http://www.w3.org/2000/svg" xmlns:xlink="http://www.w3.org/1999/xlink">
    <!-- Generator: Sketch 39.1 (31720) - http://www.bohemiancoding.com/sketch -->
    <title>Team - Inactive</title>
    <desc>Created with Sketch.</desc>
    <defs></defs>
    <g id="Page-1" stroke-width="1" fill-rule="evenodd" stroke-linecap="round" stroke-linejoin="round">
        <g id="Team---Inactive" transform="translate(1.000000, 1.000000)" stroke-width="2">
            <path d="M36.0488631,37.7255544 C36.0488631,32.8379993 31.709586,25.9887153 26.8270609,25.9887153 C21.9445358,25.9887153 17.6052587,32.8379993 17.6052587,37.7255544 L36.0488631,37.7255544 L36.0488631,37.7255544 Z" id="Stroke-1"></path>
            <path d="M31.0187892,21.796987 C31.0187892,24.1124977 29.1425716,25.9887153 26.8270609,25.9887153 C24.5115502,25.9887153 22.6353327,24.1124977 22.6353327,21.796987 C22.6353327,19.4814763 24.5115502,17.6052587 26.8270609,17.6052587 C29.1425716,17.6052587 31.0187892,19.4814763 31.0187892,21.796987 L31.0187892,21.796987 Z" id="Stroke-3"></path>
            <path d="M38.9356226,34.3721718 L44.4318167,34.3721718 C44.4318167,29.4846167 40.0925396,22.6353327 35.2100145,22.6353327 C34.90821,22.6353327 34.6080823,22.6621597 34.3096312,22.7124605" id="Stroke-5"></path>
            <path d="M34.3230448,22.5370786 C34.609759,22.5991161 34.9065333,22.6360033 35.2100145,22.6360033 C37.5255252,22.6360033 39.4017427,20.7581091 39.4017427,18.4442751 C39.4017427,16.1287644 37.5255252,14.2525468 35.2100145,14.2525468 C33.7596765,14.2525468 32.4820377,14.9886143 31.7292033,16.1086441" id="Stroke-7"></path>
            <path d="M19.3441553,22.7122928 C19.0457042,22.6619921 18.7472532,22.635165 18.4437721,22.635165 C13.561247,22.635165 9.22196986,29.484449 9.22196986,34.3720041 L14.718164,34.3720041" id="Stroke-9"></path>
            <path d="M21.9247509,16.1086441 C21.1719165,14.9886143 19.8942777,14.2525468 18.4439397,14.2525468 C16.128429,14.2525468 14.2522115,16.1287644 14.2522115,18.4442751 C14.2522115,20.7581091 16.128429,22.6360033 18.4439397,22.6360033 C18.7474209,22.6360033 19.0441952,22.5991161 19.3309094,22.5370786" id="Stroke-11"></path>
            <path d="M51.9774306,26.4078881 C51.9774306,40.530659 40.5289823,51.9774306 26.4078881,51.9774306 C12.2867939,51.9774306 0.838345654,40.530659 0.838345654,26.4078881 C0.838345654,12.2867939 12.2867939,0.838345654 26.4078881,0.838345654 C40.5289823,0.838345654 51.9774306,12.2867939 51.9774306,26.4078881 L51.9774306,26.4078881 Z" id="Stroke-13" stroke="#F9C623"></path>
        </g>
    </g>
</svg>