<?xml version="1.0" encoding="UTF-8" standalone="no"?>
<svg width="31px" height="49px" viewBox="0 0 31 49" version="1.1" xmlns="http://www.w3.org/2000/svg" xmlns:xlink="http://www.w3.org/1999/xlink">
    <!-- Generator: Sketch 39.1 (31720) - http://www.bohemiancoding.com/sketch -->
    <title>PeraMobile - Inactive</title>
    <desc>Created with Sketch.</desc>
    <defs></defs>
    <g id="Page-1" stroke-width="1" fill-rule="evenodd">
        <g id="PeraMobile---Inactive" transform="translate(1.000000, 1.000000)">
            <path d="M23.5555556,46.4 L5.83333333,46.4 C3.16372222,46.4 1,44.2512 1,41.6 L1,4.8 C1,2.1488 3.16372222,0 5.83333333,0 L23.5555556,0 C26.2251667,0 28.3888889,2.1488 28.3888889,4.8 L28.3888889,41.6 C28.3888889,44.2512 26.2251667,46.4 23.5555556,46.4 L23.5555556,46.4 Z" id="Stroke-1" stroke-width="2" stroke-linecap="round" stroke-linejoin="round"></path>
            <path d="M0.805555556,6 L28.1944444,6" id="Stroke-3" stroke-width="2" stroke-linecap="round" stroke-linejoin="round"></path>
            <path d="M1.61111111,38 L27.3888889,38" id="Stroke-5" stroke-width="2" stroke-linecap="round" stroke-linejoin="round"></path>
            <path d="M10.4722222,3 L18.5277778,3" id="Stroke-7" stroke-width="2" stroke-linecap="round" stroke-linejoin="round"></path>
            <path d="" id="Stroke-9" stroke-width="2" stroke-linecap="round" stroke-linejoin="round"></path>
            <path d="M15.3055556,42.2 C15.3055556,42.6416 14.9446667,43 14.5,43 C14.0553333,43 13.6944444,42.6416 13.6944444,42.2 C13.6944444,41.7584 14.0553333,41.4 14.5,41.4 C14.9446667,41.4 15.3055556,41.7584 15.3055556,42.2 L15.3055556,42.2 Z" id="Stroke-11" stroke-width="2" stroke-linecap="round" stroke-linejoin="round"></path>
            <polygon id="excline" stroke="none" fill="#F9C623" points="16.388 17.34 13.756 17.34 14.442 23.668 15.73 23.388"></polygon>
            <polygon id="excldot" stroke="none" fill="#F9C623" points="16.206 27 16.206 24.592 13.924 24.592 13.924 27"></polygon>
            <circle id="Oval" stroke="#F9C623" stroke-width="2" cx="15" cy="22" r="8"></circle>
        </g>
    </g>
</svg>