<?xml version="1.0" encoding="UTF-8" standalone="no"?>
<svg width="983px" height="155px" viewBox="0 0 983 155" version="1.1" xmlns="http://www.w3.org/2000/svg" xmlns:xlink="http://www.w3.org/1999/xlink">
    <!-- Generator: Sketch 39.1 (31720) - http://www.bohemiancoding.com/sketch -->
    <title>ph_logo_lockup_yellow</title>
    <desc>Created with Sketch.</desc>
    <defs>
        <polygon id="path-1" points="0.129714993 31.4769 41.7933022 31.4769 41.7933022 0.415285 0.129714993 0.415285"></polygon>
        <polygon id="path-3" points="0.107301365 38.7719 30.5604507 38.7719 30.5604507 0.4648 0.107301365 0.4648"></polygon>
    </defs>
    <g id="Navigation" stroke="none" stroke-width="1" fill="none" fill-rule="evenodd">
        <g id="ph_logo_lockup_yellow">
            <path d="M57.9222988,43.826575 C68.6830928,43.826575 78.1153938,42.892005 78.1153938,30.342065 C78.1153938,17.925635 68.6830928,16.991065 57.9222988,16.991065 L18.8594923,16.991065 L18.8594923,43.826575 L57.9222988,43.826575 L57.9222988,43.826575 Z M0,0.69771 L53.8039702,0.69771 C70.1495448,0.69771 96.9799957,0.69771 96.9799957,30.475575 C96.9799957,60.114795 70.1495448,60.114795 53.8039702,60.114795 L18.8594923,60.114795 L18.8594923,97.764615 L0,97.764615 L0,0.69771 L0,0.69771 Z" id="Fill-1" fill="#50545E"></path>
            <path d="M156.629335,53.706315 C154.105199,41.556905 145.868541,37.017565 134.039843,37.017565 C125.404638,37.017565 115.44605,39.954785 112.119707,53.706315 L156.629335,53.706315 L156.629335,53.706315 Z M172.836951,76.269505 C171.641307,82.143945 162.076157,100.167795 135.639145,100.167795 C110.132077,100.167795 94.8492971,84.146595 94.8492971,61.716915 C94.8492971,41.423395 108.139338,23.66143 134.443501,23.66143 C161.279061,23.933585 174.165444,40.622335 174.165444,66.523275 L111.59342,66.523275 C112.257666,71.062615 114.776694,86.015735 135.102638,86.816795 C145.469994,86.816795 152.378158,81.876925 154.769445,76.269505 L172.836951,76.269505 L172.836951,76.269505 Z" id="Fill-2" fill="#50545E"></path>
            <path d="M190.5008,26.069745 L206.979224,26.069745 L206.979224,36.750545 L207.372662,36.750545 C210.959593,30.876105 218.133456,23.66143 232.353442,23.66143 C234.73962,23.66143 236.466661,23.66143 238.193702,23.933585 L238.193702,41.823925 C236.60462,41.423395 233.543976,40.488825 228.102264,40.488825 C207.106963,40.622335 207.106963,54.640885 206.979224,59.714265 L206.979224,97.764615 L190.5008,97.764615 L190.5008,26.069745" id="Fill-3" fill="#50545E"></path>
            <path d="M297.715302,61.583405 C288.145042,61.983935 279.775535,63.319035 272.070276,65.188175 C261.835769,67.591355 257.058304,71.062615 256.925454,77.337585 C256.792605,83.479045 260.778084,87.350835 268.881892,87.350835 C281.364618,87.350835 291.338535,81.876925 297.715302,78.005135 L297.715302,61.583405 L297.715302,61.583405 Z M314.183507,86.149245 C314.183507,90.955605 314.449205,95.761965 315.512,97.764615 L298.640137,97.764615 C298.10874,95.361435 297.715302,92.958255 297.715302,90.555075 C290.802028,94.560375 280.572631,100.167795 266.485495,100.167795 C257.058304,100.167795 238.852839,96.162495 238.852839,78.539175 C238.852839,54.373865 274.727262,50.902605 297.715302,49.567505 L297.715302,46.363265 C297.715302,40.88422 292.794768,37.017565 279.239029,37.017565 C264.099317,37.017565 260.910934,42.624985 259.980988,46.496775 L242.838318,46.496775 C246.828907,26.99918 265.826358,23.66143 279.111289,23.66143 C313.51926,23.66143 314.183507,40.488825 314.183507,50.368565 L314.183507,86.149245 L314.183507,86.149245 Z" id="Fill-4" fill="#50545E"></path>
            <polyline id="Fill-5" fill="#F7C03B" points="334.959095 0.69771 353.261642 0.69771 353.261642 39.153725 416.150461 39.153725 416.150461 0.69771 434.453008 0.69771 434.453008 97.764615 416.150461 97.764615 416.150461 55.975985 353.261642 55.975985 353.261642 97.764615 334.959095 97.764615 334.959095 0.69771"></polyline>
            <path d="M509.630388,53.706315 C507.106251,41.556905 498.869594,37.017565 487.040896,37.017565 C478.405691,37.017565 468.447102,39.954785 465.12076,53.706315 L509.630388,53.706315 L509.630388,53.706315 Z M525.838004,76.269505 C524.64236,82.143945 515.07721,100.167795 488.640197,100.167795 C463.13313,100.167795 447.85035,84.146595 447.85035,61.716915 C447.85035,41.423395 461.14039,23.66143 487.439444,23.66143 C514.280114,23.933585 527.166497,40.622335 527.166497,66.523275 L464.594472,66.523275 C465.258719,71.062615 467.777746,86.015735 488.103691,86.816795 C498.471046,86.816795 505.37921,81.876925 507.770498,76.269505 L525.838004,76.269505 L525.838004,76.269505 Z" id="Fill-6" fill="#F7C03B"></path>
            <path d="M598.772275,61.583405 C589.202015,61.983935 580.837618,63.319035 573.127248,65.188175 C562.897852,67.591355 558.115277,71.062615 557.982427,77.337585 C557.854687,83.479045 561.835057,87.350835 569.938865,87.350835 C582.4267,87.350835 592.395508,81.876925 598.772275,78.005135 L598.772275,61.583405 L598.772275,61.583405 Z M615.245589,86.149245 C615.245589,90.955605 615.506178,95.761965 616.574082,97.764615 L599.69711,97.764615 C599.170823,95.361435 598.772275,92.958255 598.772275,90.555075 C591.864111,94.560375 581.629604,100.167795 567.547577,100.167795 C558.115277,100.167795 539.914921,96.162495 539.914921,78.539175 C539.914921,54.373865 575.789344,50.902605 598.772275,49.567505 L598.772275,46.363265 C598.772275,40.88422 593.85685,37.017565 580.301111,37.017565 C565.15629,37.017565 561.967906,42.624985 561.037961,46.496775 L543.9004,46.496775 C547.88588,26.99918 566.883331,23.66143 580.168262,23.66143 C614.576233,23.66143 615.245589,40.488825 615.245589,50.368565 L615.245589,86.149245 L615.245589,86.149245 Z" id="Fill-7" fill="#F7C03B"></path>
            <polygon id="Fill-8" fill="#F7C03B" points="636.36352 97.764615 652.841944 97.764615 652.841944 0.69771 636.36352 0.69771"></polygon>
            <path d="M666.254614,28.46779 L679.008148,28.46779 L679.008148,5.108675 L695.481462,5.108675 L695.481462,28.46779 L720.324283,28.46779 L720.324283,42.624985 L695.481462,42.624985 L695.481462,75.468445 C695.481462,80.541825 697.474202,86.015735 707.039352,86.015735 C710.227736,86.015735 716.870201,85.214675 721.121379,84.013085 L721.121379,98.565675 C713.017571,99.633755 709.164941,100.167795 703.314462,100.167795 C687.643353,100.167795 679.008148,95.094415 679.008148,79.340235 L679.008148,42.624985 L666.254614,42.624985 L666.254614,28.46779" id="Fill-9" fill="#F7C03B"></path>
            <path d="M734.27346,0.69771 L750.746775,0.69771 L750.746775,35.014915 C755.396501,29.941535 762.703213,23.66143 777.183787,23.66143 C792.06291,23.66143 805.082142,29.941535 805.082142,51.837175 L805.082142,97.764615 L788.608828,97.764615 L788.608828,57.978635 C788.608828,43.826575 784.35765,37.818625 773.331157,37.818625 C760.173966,37.818625 754.859994,43.292535 750.746775,48.365915 L750.746775,97.764615 L734.27346,97.764615 L734.27346,0.69771" id="Fill-10" fill="#F7C03B"></path>
            <polyline id="Fill-11" fill="#1A1918" points="812.409293 91.540995 809.093169 91.540995 809.093169 90.29319 817.181649 90.29319 817.181649 91.540995 813.860416 91.540995 813.860416 97.754345 812.409293 97.754345 812.409293 91.540995"></polyline>
            <polyline id="Fill-12" fill="#1A1918" points="819.537169 92.095575 819.516731 92.095575 819.516731 97.754345 818.229114 97.754345 818.229114 90.29319 820.180977 90.29319 822.495621 95.823585 824.856251 90.29319 826.767237 90.29319 826.767237 97.754345 825.479621 97.754345 825.479621 92.095575 825.459182 92.095575 823.078114 97.754345 821.923347 97.754345 819.537169 92.095575"></polyline>
            <polygon id="Fill-13" fill="#50545E" points="836.991524 147.17872 982.742545 147.17872 982.742545 0.702845 836.991524 0.702845"></polygon>
            <path d="M841.334675,33.24334 C841.334675,33.24334 929.735671,71.1191 978.189902,7.645365 C978.189902,7.645365 939.638054,124.867145 842.627401,143.19396 C842.627401,143.19396 958.293163,83.38148 841.334675,33.24334" id="Fill-14" fill="#F7C03B"></path>
            <path d="M922.924589,27.12242 C920.134754,33.69522 911.22874,36.17029 903.038069,32.652815 C894.852508,29.13534 890.47359,20.96042 893.268536,14.38762 C896.063481,7.819955 904.964384,5.344885 913.155055,8.86236 C921.345726,12.379835 925.719534,20.554755 922.924589,27.12242" id="Fill-15" fill="#F7C03B"></path>
            <polyline id="Fill-16" fill="#515560" points="334.330615 116.74871 339.164286 116.74871 339.164286 143.09126 350.870354 143.09126 350.870354 147.183855 334.330615 147.183855 334.330615 116.74871"></polyline>
            <path d="M358.565395,147.183855 L363.143587,147.183855 L363.143587,124.250945 L358.565395,124.250945 L358.565395,147.183855 Z M358.565395,121.015895 L363.143587,121.015895 L363.143587,116.4098 L358.565395,116.4098 L358.565395,121.015895 Z" id="Fill-17" fill="#515560"></path>
            <path d="M374.093435,127.660585 L370.910162,127.660585 L370.910162,124.250945 L374.093435,124.250945 L374.093435,122.11992 C374.093435,117.770575 376.167928,116.4098 379.903038,116.4098 C380.878969,116.4098 381.727161,116.45088 382.406736,116.53304 L382.406736,120.071055 L381.129339,120.071055 C379.432956,120.071055 378.671627,120.71293 378.671627,122.248295 L378.671627,124.250945 L382.406736,124.250945 L382.406736,127.660585 L378.671627,127.660585 L378.671627,147.183855 L374.093435,147.183855 L374.093435,127.660585" id="Fill-18" fill="#515560"></path>
            <path d="M400.699064,133.16017 L400.699064,131.922635 C400.699064,129.026495 399.76401,126.808175 397.173448,126.808175 C394.250763,126.808175 393.361695,129.704315 393.361695,132.68775 L393.361695,133.16017 L400.699064,133.16017 L400.699064,133.16017 Z M393.361695,136.31306 L393.361695,137.632755 C393.361695,140.703485 393.744914,144.626625 397.173448,144.626625 C400.443585,144.626625 400.826804,140.87294 400.826804,139.512165 L405.149516,139.512165 C405.149516,144.58041 402.093982,147.779515 397.137681,147.779515 C393.402572,147.779515 388.783503,146.670355 388.783503,136.05631 C388.783503,130.04836 390.050681,123.655285 397.219434,123.655285 C403.580872,123.655285 405.277256,127.49113 405.277256,133.884205 L405.277256,136.31306 L393.361695,136.31306 L393.361695,136.31306 Z" id="Fill-19" fill="#515560"></path>
            <path d="M423.830173,130.94185 L423.830173,130.34619 C423.830173,128.512995 423.191474,126.808175 420.815516,126.808175 C418.996502,126.808175 417.555598,127.660585 417.555598,129.79161 C417.555598,131.583725 418.362913,132.30776 420.779748,133.16017 L423.702433,134.182035 C427.0952,135.332275 428.668954,137.16547 428.668954,140.79078 C428.668954,145.68957 425.102461,147.779515 420.478283,147.779515 C414.709557,147.779515 412.972297,145.09391 412.972297,140.662405 L412.972297,139.809995 L417.044639,139.809995 L417.044639,140.53403 C417.044639,143.17342 417.979694,144.626625 420.606022,144.626625 C423.11483,144.626625 424.341132,143.34801 424.341132,141.258065 C424.341132,139.553245 423.452063,138.444085 421.837433,137.889505 L418.102324,136.56981 C414.66868,135.373355 413.227776,133.627455 413.227776,129.961065 C413.227776,125.657935 416.324187,123.655285 421.030118,123.655285 C426.84483,123.655285 428.157995,127.064925 428.157995,129.919985 L428.157995,130.94185 L423.830173,130.94185" id="Fill-20" fill="#515560"></path>
            <path d="M447.630638,135.075525 C446.445213,136.01523 443.900638,136.56981 442.541487,137.20655 C441.233432,137.848425 440.676487,139.2092 440.676487,140.919155 C440.676487,142.83451 441.616652,144.369875 443.522528,144.369875 C446.276597,144.369875 447.630638,142.27993 447.630638,138.91137 L447.630638,135.075525 L447.630638,135.075525 Z M451.963569,142.408305 C451.963569,143.260715 452.474528,144.02583 453.154103,144.02583 C453.44535,144.02583 453.741706,143.98475 453.910322,143.90259 L453.910322,146.886025 C453.363596,147.13764 452.551172,147.440605 451.667213,147.440605 C449.628487,147.440605 447.932103,146.629275 447.804364,144.410955 L447.72261,144.410955 C446.491199,146.670355 444.707953,147.779515 442.035638,147.779515 C438.392501,147.779515 436.098296,145.73065 436.098296,141.34536 C436.098296,136.225765 438.300528,135.16282 441.402049,134.140955 L444.963432,133.16017 C446.613829,132.68775 447.630638,132.220465 447.630638,130.217815 C447.630638,128.12787 446.915295,126.808175 444.49846,126.808175 C441.448035,126.808175 441.01372,128.98028 441.01372,131.1986 L436.696118,131.1986 C436.696118,126.34089 438.683748,123.655285 444.707953,123.655285 C448.739418,123.655285 451.963569,125.23173 451.963569,129.27811 L451.963569,142.408305 L451.963569,142.408305 Z" id="Fill-21" fill="#515560"></path>
            <polyline id="Fill-22" fill="#515560" points="459.65861 124.250945 464.579144 124.250945 468.559513 142.32101 468.651486 142.32101 472.253746 124.250945 477.133403 124.250945 471.104089 147.183855 465.764568 147.183855 459.65861 124.250945"></polyline>
            <path d="M484.777348,147.183855 L489.35554,147.183855 L489.35554,124.250945 L484.777348,124.250945 L484.777348,147.183855 Z M484.777348,121.015895 L489.35554,121.015895 L489.35554,116.4098 L484.777348,116.4098 L484.777348,121.015895 Z" id="Fill-23" fill="#515560"></path>
            <g id="Group-27" transform="translate(498.780756, 123.240000)">
                <mask id="mask-2" fill="white">
                    <use xlink:href="#path-1"></use>
                </mask>
                <g id="Clip-25"></g>
                <path d="M0.129714993,1.010945 L4.45242713,1.010945 L4.45242713,3.69655 L4.58016685,3.69655 C5.72471474,1.647685 7.8911804,0.415285 10.4357556,0.415285 C13.910276,0.415285 16.1176184,1.99173 16.1176184,6.638905 L16.1176184,23.943855 L11.5343172,23.943855 L11.5343172,8.21535 C11.5343172,5.231915 10.6452488,4.07654 8.35615298,4.07654 C6.49115307,4.07654 4.70790657,5.570825 4.70790657,8.55426 L4.70790657,23.943855 L0.129714993,23.943855 L0.129714993,1.010945" id="Fill-24" fill="#515560" mask="url(#mask-2)"></path>
                <path d="M33.270508,20.10801 C36.8318914,20.10801 37.210001,15.58921 37.210001,11.9639 C37.210001,8.21535 36.750138,4.07654 33.5719738,4.07654 C30.2558506,4.07654 29.7091246,7.491315 29.7091246,11.753365 C29.7091246,15.67137 29.8777411,20.10801 33.270508,20.10801 L33.270508,20.10801 Z M30.0463575,25.905425 C30.0463575,27.30728 31.3186451,28.63211 33.357371,28.63211 C35.7282203,28.63211 37.210001,26.96837 37.210001,24.323845 L37.210001,20.616375 L37.1333572,20.616375 C36.2851654,22.619025 34.1595765,23.7744 31.9522341,23.7744 C26.6127138,23.7744 25.1258235,18.48535 25.1258235,12.22065 C25.1258235,7.193485 25.8922618,0.415285 32.3814396,0.415285 C35.0537545,0.415285 36.9647407,2.161185 37.383727,3.824925 L37.47059,3.824925 L37.47059,1.010945 L41.7933022,1.010945 L41.7933022,22.834695 C41.7933022,28.41644 39.4173434,31.785 33.270508,31.785 C26.4849741,31.785 25.7185358,27.7797 25.7185358,25.905425 L30.0463575,25.905425 L30.0463575,25.905425 Z" id="Fill-26" fill="#515560" mask="url(#mask-2)"></path>
            </g>
            <polygon id="Fill-28" fill="#515560" points="564.773071 147.183855 569.611851 147.183855 569.611851 116.74871 564.773071 116.74871"></polygon>
            <path d="M579.033933,124.250945 L583.361755,124.250945 L583.361755,126.93655 L583.484385,126.93655 C584.634042,124.887685 586.800508,123.655285 589.345083,123.655285 C592.819604,123.655285 595.021837,125.23173 595.021837,129.878905 L595.021837,147.183855 L590.443645,147.183855 L590.443645,131.45535 C590.443645,128.471915 589.554576,127.31654 587.265481,127.31654 C585.395371,127.31654 583.617234,128.810825 583.617234,131.79426 L583.617234,147.183855 L579.033933,147.183855 L579.033933,124.250945" id="Fill-29" fill="#515560"></path>
            <path d="M602.338768,124.250945 L605.476055,124.250945 L605.476055,117.729495 L610.059356,117.729495 L610.059356,124.250945 L613.789356,124.250945 L613.789356,127.660585 L610.059356,127.660585 L610.059356,141.34536 C610.059356,143.13234 610.565206,143.774215 612.138959,143.774215 C612.818534,143.774215 613.36526,143.728 613.789356,143.64584 L613.789356,147.05548 C612.818534,147.31223 611.541137,147.440605 610.100233,147.440605 C607.003822,147.440605 605.476055,146.588195 605.476055,141.894805 L605.476055,127.660585 L602.338768,127.660585 L602.338768,124.250945" id="Fill-30" fill="#515560"></path>
            <path d="M632.37804,133.16017 L632.37804,131.922635 C632.37804,129.026495 631.442986,126.808175 628.852424,126.808175 C625.929739,126.808175 625.040671,129.704315 625.040671,132.68775 L625.040671,133.16017 L632.37804,133.16017 L632.37804,133.16017 Z M625.040671,136.31306 L625.040671,137.632755 C625.040671,140.703485 625.41878,144.626625 628.852424,144.626625 C632.122561,144.626625 632.50578,140.87294 632.50578,139.512165 L636.828492,139.512165 C636.828492,144.58041 633.772958,147.779515 628.811547,147.779515 C625.081548,147.779515 620.462479,146.670355 620.462479,136.05631 C620.462479,130.04836 621.729657,123.655285 628.89841,123.655285 C635.259848,123.655285 636.956232,127.49113 636.956232,133.884205 L636.956232,136.31306 L625.040671,136.31306 L625.040671,136.31306 Z" id="Fill-31" fill="#515560"></path>
            <polygon id="Fill-32" fill="#515560" points="645.877574 147.183855 650.460875 147.183855 650.460875 116.74871 645.877574 116.74871"></polygon>
            <polygon id="Fill-33" fill="#515560" points="660.230409 147.183855 664.808601 147.183855 664.808601 116.74871 660.230409 116.74871"></polygon>
            <g id="Group-37" transform="translate(674.465723, 115.945000)">
                <mask id="mask-4" fill="white">
                    <use xlink:href="#path-3"></use>
                </mask>
                <g id="Clip-35"></g>
                <path d="M0.107301365,31.238855 L4.68549294,31.238855 L4.68549294,8.305945 L0.107301365,8.305945 L0.107301365,31.238855 Z M0.107301365,5.070895 L4.68549294,5.070895 L4.68549294,0.4648 L0.107301365,0.4648 L0.107301365,5.070895 Z" id="Fill-34" fill="#515560" mask="url(#mask-4)"></path>
                <path d="M22.0376566,27.40301 C25.6041495,27.40301 25.9822591,22.88421 25.9822591,19.2589 C25.9822591,15.51035 25.5172865,11.37154 22.3391223,11.37154 C19.0281087,11.37154 18.4762731,14.786315 18.4762731,19.048365 C18.4762731,22.96637 18.6448896,27.40301 22.0376566,27.40301 L22.0376566,27.40301 Z M18.8186156,33.200425 C18.8186156,34.60228 20.0909032,35.92711 22.1245196,35.92711 C24.5004784,35.92711 25.9822591,34.26337 25.9822591,31.618845 L25.9822591,27.911375 L25.9005057,27.911375 C25.052314,29.914025 22.926725,31.0694 20.7244922,31.0694 C15.3849719,31.0694 13.8980816,25.78035 13.8980816,19.51565 C13.8980816,14.488485 14.6594103,7.710285 21.1536977,7.710285 C23.820903,7.710285 25.7318893,9.456185 26.1508755,11.119925 L26.2428481,11.119925 L26.2428481,8.305945 L30.5604507,8.305945 L30.5604507,30.129695 C30.5604507,35.71144 28.1896015,39.08 22.0376566,39.08 C15.2521226,39.08 14.4907939,35.0747 14.4907939,33.200425 L18.8186156,33.200425 L18.8186156,33.200425 Z" id="Fill-36" fill="#515560" mask="url(#mask-4)"></path>
            </g>
            <path d="M725.321461,133.16017 L725.321461,131.922635 C725.321461,129.026495 724.391516,126.808175 721.806064,126.808175 C718.87316,126.808175 717.984091,129.704315 717.984091,132.68775 L717.984091,133.16017 L725.321461,133.16017 L725.321461,133.16017 Z M717.984091,136.31306 L717.984091,137.632755 C717.984091,140.703485 718.36731,144.626625 721.806064,144.626625 C725.065981,144.626625 725.449201,140.87294 725.449201,139.512165 L729.777022,139.512165 C729.777022,144.58041 726.726598,147.779515 721.760077,147.779515 C718.024968,147.779515 713.40079,146.670355 713.40079,136.05631 C713.40079,130.04836 714.678187,123.655285 721.841831,123.655285 C728.208379,123.655285 729.904762,127.49113 729.904762,133.884205 L729.904762,136.31306 L717.984091,136.31306 L717.984091,136.31306 Z" id="Fill-38" fill="#515560"></path>
            <path d="M738.616611,124.250945 L742.939323,124.250945 L742.939323,126.93655 L743.072172,126.93655 C744.211611,124.887685 746.372967,123.655285 748.917542,123.655285 C752.402282,123.655285 754.609624,125.23173 754.609624,129.878905 L754.609624,147.183855 L750.026323,147.183855 L750.026323,131.45535 C750.026323,128.471915 749.132145,127.31654 746.843049,127.31654 C744.978049,127.31654 743.194803,128.810825 743.194803,131.79426 L743.194803,147.183855 L738.616611,147.183855 L738.616611,124.250945" id="Fill-39" fill="#515560"></path>
            <path d="M779.345143,138.82921 C779.048787,144.328795 777.183787,147.779515 771.542801,147.779515 C764.925884,147.779515 763.060884,142.83451 763.060884,135.7174 C763.060884,128.60029 764.925884,123.655285 771.542801,123.655285 C778.369212,123.56799 779.38602,129.026495 779.38602,131.881555 L774.807829,131.881555 C774.807829,129.75053 774.210007,126.97763 771.542801,127.064925 C768.231788,127.064925 767.639075,130.64402 767.639075,135.7174 C767.639075,140.79078 768.231788,144.369875 771.542801,144.369875 C774.087376,144.410955 775.017322,142.27993 775.017322,138.82921 L779.345143,138.82921" id="Fill-40" fill="#515560"></path>
            <path d="M798.996622,133.16017 L798.996622,131.922635 C798.996622,129.026495 798.061567,126.808175 795.476115,126.808175 C792.548321,126.808175 791.664362,129.704315 791.664362,132.68775 L791.664362,133.16017 L798.996622,133.16017 L798.996622,133.16017 Z M791.664362,136.31306 L791.664362,137.632755 C791.664362,140.703485 792.042472,144.626625 795.476115,144.626625 C798.741143,144.626625 799.124362,140.87294 799.124362,139.512165 L803.447074,139.512165 C803.447074,144.58041 800.396649,147.779515 795.435239,147.779515 C791.700129,147.779515 787.081061,146.670355 787.081061,136.05631 C787.081061,130.04836 788.348239,123.655285 795.516992,123.655285 C801.88354,123.655285 803.579923,127.49113 803.579923,133.884205 L803.579923,136.31306 L791.664362,136.31306 L791.664362,136.31306 Z" id="Fill-41" fill="#515560"></path>
        </g>
    </g>
</svg>