<?xml version="1.0" encoding="UTF-8" standalone="no"?>
<svg width="827px" height="100px" viewBox="0 0 827 100" version="1.1" xmlns="http://www.w3.org/2000/svg" xmlns:xlink="http://www.w3.org/1999/xlink">
    <!-- Generator: Sketch 39.1 (31720) - http://www.bohemiancoding.com/sketch -->
    <title>Group</title>
    <desc>Created with Sketch.</desc>
    <defs></defs>
    <g id="Navigation" stroke="none" stroke-width="1" fill="none" fill-rule="evenodd">
        <g id="Group">
            <path d="M57.879058,43.7062121 C68.6318188,43.7062121 78.0570782,42.7741515 78.0570782,30.2579091 C78.0570782,17.8748182 68.6318188,16.9427576 57.879058,16.9427576 L18.8454131,16.9427576 L18.8454131,43.7062121 L57.879058,43.7062121 L57.879058,43.7062121 Z M0,0.693151515 L53.7638039,0.693151515 C70.097176,0.693151515 96.9075971,0.693151515 96.9075971,30.3910606 C96.9075971,59.950697 70.097176,59.950697 53.7638039,59.950697 L18.8454131,59.950697 L18.8454131,97.4994242 L0,97.4994242 L0,0.693151515 L0,0.693151515 Z" id="Fill-1" fill="#50545E"></path>
            <path d="M156.512407,53.5594242 C153.990154,41.4426364 145.759646,36.9154848 133.939778,36.9154848 C125.31102,36.9154848 115.359866,39.8448182 112.036006,53.5594242 L156.512407,53.5594242 L156.512407,53.5594242 Z M172.707923,76.0620303 C171.513172,81.920697 161.955162,99.8961515 135.537886,99.8961515 C110.04986,99.8961515 94.7784892,83.9179697 94.7784892,61.5485152 C94.7784892,41.3094848 108.058608,23.5952121 134.343135,23.5952121 C161.158661,23.8666364 174.035424,40.5105758 174.035424,66.3419697 L111.510112,66.3419697 C112.173862,70.8691212 114.691009,85.7820909 135.001779,86.581 C145.361396,86.581 152.264403,81.6543939 154.653905,76.0620303 L172.707923,76.0620303 L172.707923,76.0620303 Z" id="Fill-2" fill="#50545E"></path>
            <path d="M190.358585,25.9970606 L206.824707,25.9970606 L206.824707,36.6491818 L207.217852,36.6491818 C210.802105,30.7905152 217.970613,23.5952121 232.179983,23.5952121 C234.564379,23.5952121 236.290131,23.5952121 238.015883,23.8666364 L238.015883,41.7089394 C236.427987,41.3094848 233.369628,40.3774242 227.931978,40.3774242 C206.952352,40.5105758 206.952352,54.4914848 206.824707,59.5512424 L206.824707,97.4994242 L190.358585,97.4994242 L190.358585,25.9970606" id="Fill-3" fill="#50545E"></path>
            <path d="M297.493048,61.4153636 C287.929933,61.8148182 279.566674,63.1463333 271.867167,65.0104545 C261.640301,67.4071818 256.866402,70.8691212 256.733651,77.1272424 C256.600901,83.2522121 260.583405,87.1136061 268.681163,87.1136061 C281.15457,87.1136061 291.121042,81.6543939 297.493048,77.793 L297.493048,61.4153636 L297.493048,61.4153636 Z M313.948959,85.9152424 C313.948959,90.708697 314.214459,95.5021515 315.27646,97.4994242 L298.417193,97.4994242 C297.886193,95.102697 297.493048,92.7059697 297.493048,90.3092424 C290.584935,94.3037879 280.363175,99.8961515 266.286555,99.8961515 C256.866402,99.8961515 238.674528,95.9016061 238.674528,78.3256061 C238.674528,54.2251818 274.522169,50.7632424 297.493048,49.4317273 L297.493048,46.2360909 C297.493048,40.7717576 292.576187,36.9154848 279.030568,36.9154848 C263.902159,36.9154848 260.716155,42.5078485 259.786904,46.3692424 L242.657032,46.3692424 C246.644641,26.924 265.62791,23.5952121 278.902924,23.5952121 C313.285208,23.5952121 313.948959,40.3774242 313.948959,50.2306364 L313.948959,85.9152424 L313.948959,85.9152424 Z" id="Fill-4" fill="#50545E"></path>
            <polyline id="Fill-5" fill="#F7C03B" points="334.709037 0.693151515 352.997921 0.693151515 352.997921 39.0459091 415.839792 39.0459091 415.839792 0.693151515 434.128675 0.693151515 434.128675 97.4994242 415.839792 97.4994242 415.839792 55.823 352.997921 55.823 352.997921 97.4994242 334.709037 97.4994242 334.709037 0.693151515"></polyline>
            <path d="M509.249933,53.5594242 C506.727681,41.4426364 498.497172,36.9154848 486.677305,36.9154848 C478.048546,36.9154848 468.097392,39.8448182 464.773533,53.5594242 L509.249933,53.5594242 L509.249933,53.5594242 Z M525.445449,76.0620303 C524.250698,81.920697 514.692689,99.8961515 488.275412,99.8961515 C462.787387,99.8961515 447.516016,83.9179697 447.516016,61.5485152 C447.516016,41.3094848 460.796135,23.5952121 487.075555,23.5952121 C513.896188,23.8666364 526.772951,40.5105758 526.772951,66.3419697 L464.247638,66.3419697 C464.911389,70.8691212 467.428536,85.7820909 487.739306,86.581 C498.098922,86.581 505.001929,81.6543939 507.391431,76.0620303 L525.445449,76.0620303 L525.445449,76.0620303 Z" id="Fill-6" fill="#F7C03B"></path>
            <path d="M598.325272,61.4153636 C588.762157,61.8148182 580.404004,63.1463333 572.699391,65.0104545 C562.477631,67.4071818 557.698626,70.8691212 557.565876,77.1272424 C557.438231,83.2522121 561.41563,87.1136061 569.513388,87.1136061 C581.9919,87.1136061 591.953266,81.6543939 598.325272,77.793 L598.325272,61.4153636 L598.325272,61.4153636 Z M614.786289,85.9152424 C614.786289,90.708697 615.046683,95.5021515 616.11379,97.4994242 L599.249418,97.4994242 C598.723523,95.102697 598.325272,92.7059697 598.325272,90.3092424 C591.422266,94.3037879 581.1954,99.8961515 567.123885,99.8961515 C557.698626,99.8961515 539.511858,95.9016061 539.511858,78.3256061 C539.511858,54.2251818 575.359499,50.7632424 598.325272,49.4317273 L598.325272,46.2360909 C598.325272,40.7717576 593.413518,36.9154848 579.867898,36.9154848 C564.734383,36.9154848 561.54838,42.5078485 560.619129,46.3692424 L543.494362,46.3692424 C547.476866,26.924 566.460135,23.5952121 579.735148,23.5952121 C614.117432,23.5952121 614.786289,40.3774242 614.786289,50.2306364 L614.786289,85.9152424 L614.786289,85.9152424 Z" id="Fill-7" fill="#F7C03B"></path>
            <polygon id="Fill-8" fill="#F7C03B" points="635.888454 97.4994242 652.354577 97.4994242 652.354577 0.693151515 635.888454 0.693151515"></polygon>
            <path d="M665.757234,28.3886667 L678.501247,28.3886667 L678.501247,5.09227273 L694.962263,5.09227273 L694.962263,28.3886667 L719.786538,28.3886667 L719.786538,42.5078485 L694.962263,42.5078485 L694.962263,75.2631212 C694.962263,80.3228788 696.953515,85.7820909 706.511525,85.7820909 C709.697528,85.7820909 716.335035,84.9831818 720.583039,83.7848182 L720.583039,98.2983333 C712.485281,99.3635455 708.635527,99.8961515 702.789416,99.8961515 C687.130006,99.8961515 678.501247,94.8363939 678.501247,79.1245152 L678.501247,42.5078485 L665.757234,42.5078485 L665.757234,28.3886667" id="Fill-9" fill="#F7C03B"></path>
            <path d="M733.725302,0.693151515 L750.186319,0.693151515 L750.186319,34.9182121 C754.832573,29.8584545 762.133831,23.5952121 776.603595,23.5952121 C791.47161,23.5952121 804.481123,29.8584545 804.481123,51.695303 L804.481123,97.4994242 L788.020107,97.4994242 L788.020107,57.8202727 C788.020107,43.7062121 783.772102,37.7143939 772.753841,37.7143939 C759.606472,37.7143939 754.296467,43.1736061 750.186319,48.2333636 L750.186319,97.4994242 L733.725302,97.4994242 L733.725302,0.693151515" id="Fill-10" fill="#F7C03B"></path>
            <polyline id="Fill-11" fill="#1A1918" points="811.802804 91.2925152 808.489156 91.2925152 808.489156 90.0480606 816.571597 90.0480606 816.571597 91.2925152 813.252844 91.2925152 813.252844 97.4891818 811.802804 97.4891818 811.802804 91.2925152"></polyline>
            <polyline id="Fill-12" fill="#1A1918" points="818.925359 91.8456061 818.904936 91.8456061 818.904936 97.4891818 817.618281 97.4891818 817.618281 90.0480606 819.568686 90.0480606 821.881602 95.5636061 824.24047 90.0480606 826.15003 90.0480606 826.15003 97.4891818 824.863374 97.4891818 824.863374 91.8456061 824.842951 91.8456061 822.46366 97.4891818 821.309755 97.4891818 818.925359 91.8456061"></polyline>
        </g>
    </g>
</svg>